<svg width="48" height="48" viewBox="0 0 48 48" fill="none" xmlns="http://www.w3.org/2000/svg">
<path opacity="0.4" d="M38.64 20H9.38004C6.42004 20 4.02002 17.58 4.02002 14.64V9.38002C4.02002 6.42002 6.44004 4.02002 9.38004 4.02002H38.64C41.6 4.02002 44 6.44002 44 9.38002V14.64C44 17.58 41.58 20 38.64 20Z" fill="url(#paint0_linear_205_11964)" fill-opacity="0.8"/>
<path opacity="0.4" d="M38.64 44H9.38004C6.42004 44 4.02002 41.58 4.02002 38.64V33.38C4.02002 30.42 6.44004 28.02 9.38004 28.02H38.64C41.6 28.02 44 30.44 44 33.38V38.64C44 41.58 41.58 44 38.64 44Z" fill="url(#paint1_linear_205_11964)" fill-opacity="0.8"/>
<path d="M12 15.5C11.18 15.5 10.5 14.82 10.5 14V10C10.5 9.18 11.18 8.5 12 8.5C12.82 8.5 13.5 9.18 13.5 10V14C13.5 14.82 12.82 15.5 12 15.5Z" fill="url(#paint2_linear_205_11964)" fill-opacity="0.8"/>
<path d="M20 15.5C19.18 15.5 18.5 14.82 18.5 14V10C18.5 9.18 19.18 8.5 20 8.5C20.82 8.5 21.5 9.18 21.5 10V14C21.5 14.82 20.82 15.5 20 15.5Z" fill="url(#paint3_linear_205_11964)" fill-opacity="0.8"/>
<path d="M12 39.5C11.18 39.5 10.5 38.82 10.5 38V34C10.5 33.18 11.18 32.5 12 32.5C12.82 32.5 13.5 33.18 13.5 34V38C13.5 38.82 12.82 39.5 12 39.5Z" fill="url(#paint4_linear_205_11964)" fill-opacity="0.8"/>
<path d="M20 39.5C19.18 39.5 18.5 38.82 18.5 38V34C18.5 33.18 19.18 32.5 20 32.5C20.82 32.5 21.5 33.18 21.5 34V38C21.5 38.82 20.82 39.5 20 39.5Z" fill="url(#paint5_linear_205_11964)" fill-opacity="0.8"/>
<path d="M36 13.5H28C27.18 13.5 26.5 12.82 26.5 12C26.5 11.18 27.18 10.5 28 10.5H36C36.82 10.5 37.5 11.18 37.5 12C37.5 12.82 36.82 13.5 36 13.5Z" fill="url(#paint6_linear_205_11964)" fill-opacity="0.8"/>
<path d="M36 37.5H28C27.18 37.5 26.5 36.82 26.5 36C26.5 35.18 27.18 34.5 28 34.5H36C36.82 34.5 37.5 35.18 37.5 36C37.5 36.82 36.82 37.5 36 37.5Z" fill="url(#paint7_linear_205_11964)" fill-opacity="0.8"/>
<defs>
<linearGradient id="paint0_linear_205_11964" x1="4.90291" y1="18.6217" x2="41.8491" y2="9.64155" gradientUnits="userSpaceOnUse">
<stop stop-color="#288DD1"/>
<stop offset="1" stop-color="#3FE0C8"/>
</linearGradient>
<linearGradient id="paint1_linear_205_11964" x1="4.90291" y1="42.6217" x2="41.8491" y2="33.6416" gradientUnits="userSpaceOnUse">
<stop stop-color="#288DD1"/>
<stop offset="1" stop-color="#3FE0C8"/>
</linearGradient>
<linearGradient id="paint2_linear_205_11964" x1="10.5662" y1="14.8963" x2="13.4973" y2="14.7742" gradientUnits="userSpaceOnUse">
<stop stop-color="#288DD1"/>
<stop offset="1" stop-color="#3FE0C8"/>
</linearGradient>
<linearGradient id="paint3_linear_205_11964" x1="18.5662" y1="14.8963" x2="21.4973" y2="14.7742" gradientUnits="userSpaceOnUse">
<stop stop-color="#288DD1"/>
<stop offset="1" stop-color="#3FE0C8"/>
</linearGradient>
<linearGradient id="paint4_linear_205_11964" x1="10.5662" y1="38.8963" x2="13.4973" y2="38.7742" gradientUnits="userSpaceOnUse">
<stop stop-color="#288DD1"/>
<stop offset="1" stop-color="#3FE0C8"/>
</linearGradient>
<linearGradient id="paint5_linear_205_11964" x1="18.5662" y1="38.8963" x2="21.4973" y2="38.7742" gradientUnits="userSpaceOnUse">
<stop stop-color="#288DD1"/>
<stop offset="1" stop-color="#3FE0C8"/>
</linearGradient>
<linearGradient id="paint6_linear_205_11964" x1="26.7429" y1="13.2413" x2="36.2965" y2="9.83806" gradientUnits="userSpaceOnUse">
<stop stop-color="#288DD1"/>
<stop offset="1" stop-color="#3FE0C8"/>
</linearGradient>
<linearGradient id="paint7_linear_205_11964" x1="26.7429" y1="37.2413" x2="36.2965" y2="33.8381" gradientUnits="userSpaceOnUse">
<stop stop-color="#288DD1"/>
<stop offset="1" stop-color="#3FE0C8"/>
</linearGradient>
</defs>
</svg>
