<svg width="48" height="48" viewBox="0 0 48 48" fill="none" xmlns="http://www.w3.org/2000/svg">
<path opacity="0.4" d="M36 37.72H34.48C32.88 37.72 31.36 38.34 30.24 39.46L26.82 42.84C25.26 44.38 22.72 44.38 21.16 42.84L17.74 39.46C16.62 38.34 15.08 37.72 13.5 37.72H12C8.68 37.72 6 35.06 6 31.78V9.95996C6 6.67996 8.68 4.02002 12 4.02002H36C39.32 4.02002 42 6.67996 42 9.95996V31.78C42 35.04 39.32 37.72 36 37.72Z" fill="url(#paint0_linear_301_659)" fill-opacity="0.8"/>
<path d="M20.76 29.0199H15.4C14.52 29.0199 13.7 28.5999 13.18 27.8799C12.68 27.1999 12.56 26.3599 12.8 25.5599C13.5 23.4199 15.22 22.2598 16.74 21.2198C18.34 20.1398 19.24 19.4599 19.24 18.2999C19.24 17.2599 18.4 16.4199 17.36 16.4199C16.32 16.4199 15.48 17.2599 15.48 18.2999C15.48 19.1199 14.8 19.7999 13.98 19.7999C13.16 19.7999 12.48 19.1199 12.48 18.2999C12.48 15.6199 14.66 13.4199 17.36 13.4199C20.06 13.4199 22.24 15.5999 22.24 18.2999C22.24 21.1199 20.12 22.5598 18.42 23.7198C17.36 24.4398 16.36 25.1199 15.86 26.0199H20.74C21.56 26.0199 22.24 26.6999 22.24 27.5199C22.24 28.3399 21.58 29.0199 20.76 29.0199Z" fill="url(#paint1_linear_301_659)" fill-opacity="0.8"/>
<path d="M32.08 29.0199C31.26 29.0199 30.58 28.3399 30.58 27.5199V26.1399H26.66C26.66 26.1399 26.66 26.1399 26.64 26.1399C25.66 26.1399 24.76 25.6199 24.26 24.7799C23.76 23.9199 23.76 22.8599 24.26 22.0199C25.62 19.6799 27.2 17.0198 28.64 14.6998C29.28 13.6798 30.5 13.2199 31.64 13.5399C32.78 13.8799 33.58 14.9199 33.56 16.1199V23.1599H34C34.82 23.1599 35.5 23.8399 35.5 24.6599C35.5 25.4799 34.82 26.1599 34 26.1599H33.58V27.5399C33.58 28.3599 32.92 29.0199 32.08 29.0199ZM30.58 17.2799C29.4 19.1999 28.18 21.2599 27.08 23.1399H30.58V17.2799Z" fill="url(#paint2_linear_301_659)" fill-opacity="0.8"/>
<defs>
<linearGradient id="paint0_linear_301_659" x1="6.795" y1="40.5471" x2="41.761" y2="37.4879" gradientUnits="userSpaceOnUse">
<stop stop-color="#288DD1"/>
<stop offset="1" stop-color="#3FE0C8"/>
</linearGradient>
<linearGradient id="paint1_linear_301_659" x1="12.6955" y1="27.6744" x2="22.2126" y2="27.0959" gradientUnits="userSpaceOnUse">
<stop stop-color="#288DD1"/>
<stop offset="1" stop-color="#3FE0C8"/>
</linearGradient>
<linearGradient id="paint2_linear_301_659" x1="24.1415" y1="27.6761" x2="35.4499" y2="26.8571" gradientUnits="userSpaceOnUse">
<stop stop-color="#288DD1"/>
<stop offset="1" stop-color="#3FE0C8"/>
</linearGradient>
</defs>
</svg>
