<svg width="201" height="228" viewBox="0 0 201 228" fill="none" xmlns="http://www.w3.org/2000/svg">
<path d="M135.607 208.8C128.711 212.179 121.559 215.201 114.339 217.79C111.866 218.677 110.582 221.398 111.465 223.875C112.163 225.817 113.989 227.025 115.944 227.025C116.478 227.025 117.02 226.937 117.549 226.744C125.099 224.039 132.58 220.873 139.793 217.341C142.153 216.185 143.128 213.335 141.972 210.975C140.816 208.615 137.966 207.64 135.607 208.796V208.8Z" fill="url(#paint0_linear_232_446)"/>
<path d="M150.425 169.94C134.471 181.391 116.911 190.141 98.2362 195.944C95.7278 196.723 94.327 199.388 95.1057 201.896C95.7398 203.935 97.6182 205.244 99.645 205.244C100.115 205.244 100.588 205.176 101.058 205.027C120.708 198.918 139.183 189.711 155.967 177.667C158.103 176.133 158.588 173.163 157.059 171.028C155.526 168.893 152.556 168.407 150.421 169.936L150.425 169.94Z" fill="url(#paint1_linear_232_446)"/>
<path d="M197.757 73.2938C195.296 72.3787 192.555 73.6309 191.64 76.0953C187.008 88.5494 180.787 100.409 173.149 111.342C171.644 113.498 172.17 116.46 174.325 117.965C175.156 118.543 176.103 118.824 177.047 118.824C178.548 118.824 180.025 118.113 180.948 116.793C189.047 105.202 195.645 92.6231 200.558 79.4145C201.473 76.9542 200.221 74.2129 197.757 73.2978V73.2938Z" fill="url(#paint2_linear_232_446)"/>
<path d="M159.64 128.111C140.68 148.628 116.626 163.772 90.0726 171.903C87.5602 172.674 86.1474 175.331 86.918 177.843C87.5441 179.89 89.4305 181.207 91.4653 181.207C91.9269 181.207 92.3965 181.138 92.8621 180.998C121.021 172.373 146.527 156.314 166.627 134.565C168.409 132.634 168.293 129.628 166.362 127.842C164.432 126.06 161.426 126.177 159.64 128.107V128.111Z" fill="url(#paint3_linear_232_446)"/>
<path d="M141.799 124.013C157.139 109.396 169.204 91.2505 176.685 71.5399C177.617 69.0836 176.38 66.3383 173.924 65.4072C171.468 64.476 168.722 65.7122 167.791 68.1685C153.64 105.463 122.546 135.047 84.6222 147.3C82.1218 148.107 80.7491 150.788 81.5599 153.288C82.2101 155.303 84.0764 156.583 86.0832 156.583C86.5688 156.583 87.0625 156.507 87.5481 156.351C107.66 149.853 126.419 138.675 141.803 124.017L141.799 124.013Z" fill="url(#paint4_linear_232_446)"/>
<path d="M85.3367 130.8C85.9186 130.8 86.5126 130.692 87.0866 130.463C125.83 115.123 153.78 80.0567 160.025 38.9457C160.418 36.3489 158.632 33.9247 156.036 33.5274C153.439 33.1341 151.015 34.9201 150.617 37.5169C144.878 75.2926 119.191 107.517 83.5827 121.617C81.1385 122.584 79.9424 125.35 80.9097 127.79C81.6482 129.656 83.4382 130.796 85.3326 130.796L85.3367 130.8Z" fill="url(#paint5_linear_232_446)"/>
<path d="M121.495 73.5186C131.962 58.0262 137.493 39.921 137.493 21.1536C137.493 19.1187 137.429 17.0598 137.296 15.0369C137.128 12.4161 134.864 10.4293 132.243 10.5979C129.622 10.7665 127.636 13.0301 127.804 15.651C127.921 17.4691 127.981 19.3234 127.981 21.1536C127.981 55.0481 107.809 85.479 76.5911 98.6836C74.1709 99.7071 73.0391 102.497 74.0625 104.917C74.8291 106.731 76.5911 107.823 78.4453 107.823C79.0634 107.823 79.6896 107.702 80.2956 107.445C97.0402 100.361 111.288 88.6337 121.495 73.5186Z" fill="url(#paint6_linear_232_446)"/>
<path d="M113.721 21.1536C113.721 18.7936 113.6 16.4136 113.367 14.0817C113.103 11.4688 110.771 9.56239 108.158 9.82327C105.545 10.0882 103.639 12.4201 103.899 15.0329C104.104 17.0517 104.204 19.1107 104.204 21.1536C104.204 54.4421 77.1209 81.5216 43.8364 81.5216C31.005 81.5216 18.7556 77.5522 8.40865 70.0388C6.28146 68.4936 3.30741 68.9672 1.7662 71.0944C0.22098 73.2216 0.694582 76.1956 2.82177 77.7368C14.8023 86.4342 28.9862 91.0338 43.8364 91.0338C62.5035 91.0338 80.0508 83.7652 93.2514 70.5646C106.452 57.364 113.721 39.8167 113.721 21.1496V21.1536Z" fill="url(#paint7_linear_232_446)"/>
<path d="M43.8364 66.8881C69.0536 66.8881 89.5709 46.3708 89.5709 21.1536C89.5709 15.7955 88.6518 10.5457 86.8377 5.54884C85.9427 3.0805 83.2135 1.80417 80.7451 2.6992C78.2768 3.59422 77.0005 6.32344 77.8955 8.79179C79.3283 12.7451 80.0588 16.9032 80.0588 21.1496C80.0588 41.1251 63.8079 57.372 43.8364 57.372C30.11 57.372 17.7241 49.7623 11.5071 37.5089C10.3191 35.1649 7.45744 34.2298 5.11352 35.4178C2.7696 36.6058 1.83443 39.4675 3.02244 41.8114C10.8649 57.2757 26.5058 66.8841 43.8364 66.8841V66.8881Z" fill="url(#paint8_linear_232_446)"/>
<path d="M43.8356 0.949738C32.6779 0.949738 23.6313 9.99632 23.6313 21.154C23.6313 32.3117 32.6779 41.3583 43.8356 41.3583C54.9933 41.3583 64.0399 32.3117 64.0399 21.154C64.0399 9.99632 54.9933 0.949738 43.8356 0.949738Z" fill="#288DD1"/>
<defs>
<linearGradient id="paint0_linear_232_446" x1="5.27421" y1="207.653" x2="199.563" y2="190.845" gradientUnits="userSpaceOnUse">
<stop stop-color="#288DD1"/>
<stop offset="1" stop-color="#3FE0C8"/>
</linearGradient>
<linearGradient id="paint1_linear_232_446" x1="5.27421" y1="207.653" x2="199.563" y2="190.845" gradientUnits="userSpaceOnUse">
<stop stop-color="#288DD1"/>
<stop offset="1" stop-color="#3FE0C8"/>
</linearGradient>
<linearGradient id="paint2_linear_232_446" x1="5.27421" y1="207.653" x2="199.563" y2="190.845" gradientUnits="userSpaceOnUse">
<stop stop-color="#288DD1"/>
<stop offset="1" stop-color="#3FE0C8"/>
</linearGradient>
<linearGradient id="paint3_linear_232_446" x1="5.27421" y1="207.653" x2="199.563" y2="190.845" gradientUnits="userSpaceOnUse">
<stop stop-color="#288DD1"/>
<stop offset="1" stop-color="#3FE0C8"/>
</linearGradient>
<linearGradient id="paint4_linear_232_446" x1="5.27421" y1="207.653" x2="199.563" y2="190.845" gradientUnits="userSpaceOnUse">
<stop stop-color="#288DD1"/>
<stop offset="1" stop-color="#3FE0C8"/>
</linearGradient>
<linearGradient id="paint5_linear_232_446" x1="5.27421" y1="207.653" x2="199.563" y2="190.845" gradientUnits="userSpaceOnUse">
<stop stop-color="#288DD1"/>
<stop offset="1" stop-color="#3FE0C8"/>
</linearGradient>
<linearGradient id="paint6_linear_232_446" x1="5.27421" y1="207.653" x2="199.563" y2="190.845" gradientUnits="userSpaceOnUse">
<stop stop-color="#288DD1"/>
<stop offset="1" stop-color="#3FE0C8"/>
</linearGradient>
<linearGradient id="paint7_linear_232_446" x1="5.27421" y1="207.653" x2="199.563" y2="190.845" gradientUnits="userSpaceOnUse">
<stop stop-color="#288DD1"/>
<stop offset="1" stop-color="#3FE0C8"/>
</linearGradient>
<linearGradient id="paint8_linear_232_446" x1="5.27421" y1="207.653" x2="199.563" y2="190.845" gradientUnits="userSpaceOnUse">
<stop stop-color="#288DD1"/>
<stop offset="1" stop-color="#3FE0C8"/>
</linearGradient>
</defs>
</svg>
