<svg width="69" height="78" viewBox="0 0 69 78" fill="none" xmlns="http://www.w3.org/2000/svg">
<path d="M46.518 71.3809C44.1814 72.526 41.7579 73.5501 39.3112 74.4273C38.4735 74.7278 38.0383 75.6499 38.3375 76.4891C38.5741 77.1473 39.1929 77.5567 39.8552 77.5567C40.0361 77.5567 40.2197 77.5268 40.3992 77.4615C42.9574 76.5448 45.4925 75.4718 47.9365 74.275C48.7362 73.8833 49.0666 72.9177 48.6749 72.118C48.2833 71.3183 47.3177 70.9878 46.518 71.3795V71.3809Z" fill="url(#paint0_linear_232_446)"/>
<path d="M51.5392 58.2132C46.1331 62.0933 40.183 65.0581 33.8548 67.0247C33.0048 67.2886 32.5302 68.1916 32.794 69.0416C33.0089 69.7325 33.6454 70.1759 34.3322 70.1759C34.4913 70.1759 34.6518 70.1528 34.8109 70.1024C41.4696 68.0325 47.7298 64.9126 53.4174 60.8312C54.1409 60.3117 54.3054 59.3053 53.7873 58.5817C53.2677 57.8582 52.2613 57.6936 51.5378 58.2118L51.5392 58.2132Z" fill="url(#paint1_linear_232_446)"/>
<path d="M67.5779 25.4639C66.7442 25.1538 65.8153 25.5782 65.5052 26.4132C63.9357 30.6333 61.8277 34.6522 59.2396 38.3569C58.7296 39.0872 58.9077 40.0909 59.6381 40.6009C59.9196 40.7968 60.2406 40.892 60.5602 40.892C61.0688 40.892 61.5693 40.6512 61.8821 40.2038C64.6266 36.2761 66.8625 32.0138 68.5272 27.5379C68.8372 26.7043 68.4129 25.7754 67.5779 25.4653V25.4639Z" fill="url(#paint2_linear_232_446)"/>
<path d="M54.6617 44.0391C48.237 50.9915 40.0864 56.1228 31.0886 58.8782C30.2372 59.1393 29.7585 60.0397 30.0196 60.891C30.2318 61.5846 30.871 62.0307 31.5605 62.0307C31.7169 62.0307 31.876 62.0076 32.0338 61.96C41.5757 59.0373 50.2186 53.5959 57.0295 46.226C57.6334 45.5718 57.5939 44.5531 56.9398 43.9479C56.2856 43.3441 55.267 43.3835 54.6617 44.0377V44.0391Z" fill="url(#paint3_linear_232_446)"/>
<path d="M48.6165 42.6505C53.8145 37.6973 57.9027 31.5486 60.4378 24.8696C60.7533 24.0373 60.3344 23.107 59.5021 22.7915C58.6697 22.476 57.7395 22.8948 57.424 23.7272C52.6285 36.3645 42.0925 46.3892 29.2417 50.5413C28.3944 50.8147 27.9292 51.7231 28.204 52.5704C28.4243 53.2532 29.0567 53.687 29.7367 53.687C29.9013 53.687 30.0686 53.6612 30.2331 53.6081C37.0482 51.4063 43.4049 47.6186 48.6178 42.6518L48.6165 42.6505Z" fill="url(#paint4_linear_232_446)"/>
<path d="M29.4837 44.9503C29.681 44.9503 29.8822 44.9135 30.0767 44.836C43.205 39.638 52.6761 27.7555 54.7923 13.8249C54.9256 12.9449 54.3204 12.1235 53.4405 11.9889C52.5605 11.8556 51.7391 12.4608 51.6044 13.3407C49.6596 26.1412 40.9555 37.0608 28.8894 41.8385C28.0612 42.1663 27.6559 43.1034 27.9836 43.9302C28.2339 44.5627 28.8405 44.9489 29.4824 44.9489L29.4837 44.9503Z" fill="url(#paint5_linear_232_446)"/>
<path d="M41.7361 25.5401C45.2831 20.2904 47.1572 14.1554 47.1572 7.79592C47.1572 7.1064 47.1354 6.40871 47.0905 5.72326C47.0334 4.83517 46.2664 4.16195 45.3783 4.21907C44.4902 4.27619 43.817 5.04324 43.8741 5.93134C43.9135 6.54743 43.9339 7.17576 43.9339 7.79592C43.9339 19.2813 37.0985 29.5929 26.5203 34.0674C25.7002 34.4142 25.3166 35.3594 25.6635 36.1795C25.9232 36.7942 26.5203 37.1642 27.1486 37.1642C27.358 37.1642 27.5702 37.1234 27.7756 37.0363C33.4496 34.6359 38.2776 30.6619 41.7361 25.5401Z" fill="url(#paint6_linear_232_446)"/>
<path d="M39.1018 7.79592C39.1018 6.99623 39.061 6.18974 38.9821 5.39957C38.8924 4.5142 38.1022 3.86818 37.2168 3.95658C36.3314 4.04634 35.6854 4.83652 35.7738 5.72189C35.8432 6.40598 35.8772 7.10367 35.8772 7.79592C35.8772 19.0759 26.6998 28.2519 15.4212 28.2519C11.0732 28.2519 6.9224 26.9069 3.41628 24.3609C2.69547 23.8373 1.68769 23.9978 1.16545 24.7186C0.641841 25.4394 0.802324 26.4472 1.52313 26.9695C5.58279 29.9166 10.3891 31.4752 15.4212 31.4752C21.7466 31.4752 27.6926 29.0122 32.1657 24.5391C36.6388 20.066 39.1018 14.12 39.1018 7.79456V7.79592Z" fill="url(#paint7_linear_232_446)"/>
<path d="M15.4212 23.2933C23.9661 23.2933 30.9186 16.3409 30.9186 7.79592C30.9186 5.9803 30.6071 4.20139 29.9924 2.50817C29.6891 1.67176 28.7643 1.23927 27.9279 1.54255C27.0915 1.84584 26.659 2.77065 26.9623 3.60706C27.4478 4.94668 27.6953 6.35566 27.6953 7.79456C27.6953 14.5634 22.1886 20.0687 15.4212 20.0687C10.7699 20.0687 6.57288 17.4901 4.46621 13.338C4.06365 12.5437 3.09395 12.2269 2.2997 12.6294C1.50545 13.032 1.18857 14.0017 1.59113 14.7959C4.24861 20.0361 9.5486 23.292 15.4212 23.292V23.2933Z" fill="url(#paint8_linear_232_446)"/>
<path d="M15.4209 0.949738C11.6401 0.949738 8.57458 4.01522 8.57458 7.79607C8.57458 11.5769 11.6401 14.6424 15.4209 14.6424C19.2018 14.6424 22.2672 11.5769 22.2672 7.79607C22.2672 4.01522 19.2018 0.949738 15.4209 0.949738Z" fill="#288DD1"/>
<defs>
<linearGradient id="paint0_linear_232_446" x1="2.35416" y1="70.9921" x2="68.1898" y2="65.2969" gradientUnits="userSpaceOnUse">
<stop stop-color="#288DD1"/>
<stop offset="1" stop-color="#3FE0C8"/>
</linearGradient>
<linearGradient id="paint1_linear_232_446" x1="2.35416" y1="70.9921" x2="68.1898" y2="65.2969" gradientUnits="userSpaceOnUse">
<stop stop-color="#288DD1"/>
<stop offset="1" stop-color="#3FE0C8"/>
</linearGradient>
<linearGradient id="paint2_linear_232_446" x1="2.35416" y1="70.9921" x2="68.1898" y2="65.2969" gradientUnits="userSpaceOnUse">
<stop stop-color="#288DD1"/>
<stop offset="1" stop-color="#3FE0C8"/>
</linearGradient>
<linearGradient id="paint3_linear_232_446" x1="2.35416" y1="70.9921" x2="68.1898" y2="65.2969" gradientUnits="userSpaceOnUse">
<stop stop-color="#288DD1"/>
<stop offset="1" stop-color="#3FE0C8"/>
</linearGradient>
<linearGradient id="paint4_linear_232_446" x1="2.35416" y1="70.9921" x2="68.1898" y2="65.2969" gradientUnits="userSpaceOnUse">
<stop stop-color="#288DD1"/>
<stop offset="1" stop-color="#3FE0C8"/>
</linearGradient>
<linearGradient id="paint5_linear_232_446" x1="2.35416" y1="70.9921" x2="68.1898" y2="65.2969" gradientUnits="userSpaceOnUse">
<stop stop-color="#288DD1"/>
<stop offset="1" stop-color="#3FE0C8"/>
</linearGradient>
<linearGradient id="paint6_linear_232_446" x1="2.35416" y1="70.9921" x2="68.1898" y2="65.2969" gradientUnits="userSpaceOnUse">
<stop stop-color="#288DD1"/>
<stop offset="1" stop-color="#3FE0C8"/>
</linearGradient>
<linearGradient id="paint7_linear_232_446" x1="2.35416" y1="70.9921" x2="68.1898" y2="65.2969" gradientUnits="userSpaceOnUse">
<stop stop-color="#288DD1"/>
<stop offset="1" stop-color="#3FE0C8"/>
</linearGradient>
<linearGradient id="paint8_linear_232_446" x1="2.35416" y1="70.9921" x2="68.1898" y2="65.2969" gradientUnits="userSpaceOnUse">
<stop stop-color="#288DD1"/>
<stop offset="1" stop-color="#3FE0C8"/>
</linearGradient>
</defs>
</svg>
