<svg width="147" height="30" viewBox="0 0 147 30" fill="none" xmlns="http://www.w3.org/2000/svg">
<path d="M8.96516 12.6603L14.6587 6.96915L20.3545 12.665L23.6655 9.35167L14.6587 0.342529L5.65186 9.34936L8.96516 12.6603Z" fill="#121212"/>
<path d="M-0.0012207 15.0005L3.31088 11.6884L6.62297 15.0005L3.31088 18.3126L-0.0012207 15.0005Z" fill="#121212"/>
<path d="M8.96516 17.3397L14.6587 23.0332L20.3545 17.3374L23.6678 20.6461L23.6655 20.6484L14.6587 29.6575L5.65185 20.653L5.64722 20.6484L8.96516 17.3397Z" fill="#121212"/>
<path d="M22.6887 15.0013L26.0008 11.6892L29.3129 15.0013L26.0008 18.3134L22.6887 15.0013Z" fill="#121212"/>
<path d="M18.0183 14.9989L14.6587 11.637L12.1743 14.1214L11.8872 14.4062L11.2991 14.9943L11.2944 14.9989L11.2991 15.0058L14.6587 18.3631L18.0183 15.0012L18.0206 14.9989H18.0183Z" fill="#121212"/>
<path d="M34.4807 7.44617H41.6862C43.4737 7.44617 44.8258 7.90924 45.7427 8.83539C46.0882 9.17751 46.3605 9.58624 46.5432 10.0368C46.7259 10.4873 46.8151 10.9703 46.8055 11.4564V11.5004C46.8117 11.8986 46.7562 12.2954 46.6411 12.6766C46.5385 13.0048 46.3896 13.3167 46.1989 13.6028C46.021 13.8725 45.8059 14.1158 45.5598 14.3252C45.3194 14.5321 45.056 14.7108 44.7749 14.8577C45.5856 15.1401 46.3147 15.6171 46.8981 16.2469C47.4137 16.8335 47.6714 17.6439 47.6714 18.6781V18.7221C47.6861 19.368 47.5455 20.0079 47.2616 20.5883C46.9865 21.123 46.5832 21.5812 46.0877 21.9219C45.5276 22.2975 44.9039 22.5681 44.247 22.7207C43.4666 22.9058 42.6665 22.9952 41.8645 22.987H34.4807V7.44617ZM40.9638 13.7301C41.5872 13.7602 42.2076 13.6261 42.7628 13.3411C42.9794 13.2146 43.1562 13.03 43.2732 12.8083C43.3902 12.5865 43.4428 12.3363 43.425 12.0862V12.0422C43.4365 11.8117 43.3897 11.5821 43.2889 11.3745C43.1881 11.1668 43.0367 10.988 42.8485 10.8544C42.4641 10.5812 41.9092 10.4446 41.1837 10.4446H37.8125V13.7301H40.9638ZM41.8737 19.9932C42.4948 20.028 43.113 19.8859 43.6566 19.5834C43.8683 19.4473 44.0397 19.257 44.1529 19.0322C44.2661 18.8074 44.317 18.5564 44.3002 18.3053V18.2613C44.3086 18.0226 44.2583 17.7855 44.1537 17.5708C44.0492 17.356 43.8936 17.1702 43.7006 17.0295C43.3023 16.7208 42.6586 16.5664 41.7695 16.5664H37.8125V19.9932H41.8737Z" fill="#121212"/>
<path d="M51.9641 7.44617H55.3839V22.9916H51.9641V7.44617Z" fill="#121212"/>
<path d="M60.5588 7.44617H63.7124L71.0012 17.0133V7.44617H74.377V22.9916H71.4666L63.9393 13.1096V22.9916H60.5588V7.44617Z" fill="#121212"/>
<path d="M84.7315 7.33508H87.8805L94.5418 22.9917H90.9715L89.5498 19.5047H82.9765L81.5548 22.9917H78.0679L84.7315 7.33508ZM88.3296 16.4855L86.2597 11.4426L84.199 16.4855H88.3296Z" fill="#121212"/>
<path d="M98.2395 7.44617H101.393L108.677 17.0133V7.44617H112.053V22.9916H109.143L101.615 13.1096V22.9916H98.2395V7.44617Z" fill="#121212"/>
<path d="M124.361 23.2648C123.272 23.2741 122.191 23.0631 121.185 22.6443C120.237 22.2531 119.378 21.6763 118.657 20.9478C117.936 20.2193 117.368 19.3539 116.987 18.4025C116.585 17.4074 116.381 16.3432 116.387 15.2698V15.2258C116.369 13.1101 117.183 11.072 118.654 9.55082C119.378 8.80775 120.244 8.21865 121.201 7.81891C122.242 7.3877 123.36 7.17265 124.486 7.18681C125.153 7.18184 125.818 7.24155 126.473 7.3651C127.033 7.47106 127.581 7.63479 128.108 7.85364C128.586 8.05477 129.04 8.3079 129.462 8.60846C129.874 8.9016 130.262 9.22841 130.62 9.58555L128.446 12.0954C127.89 11.5829 127.267 11.149 126.593 10.8058C125.932 10.4894 125.206 10.3309 124.473 10.3427C123.862 10.3362 123.258 10.4596 122.699 10.7047C122.14 10.9498 121.64 11.311 121.231 11.7643C120.826 12.2165 120.509 12.7402 120.296 13.3087C120.073 13.9094 119.96 14.5456 119.965 15.1865V15.2304C119.962 15.8703 120.074 16.5054 120.296 17.1059C120.506 17.6764 120.82 18.2031 121.222 18.6595C121.627 19.1185 122.126 19.485 122.685 19.7343C123.245 19.9835 123.851 20.1097 124.463 20.1043C125.243 20.1289 126.017 19.9611 126.716 19.6158C127.382 19.2528 127.998 18.8045 128.548 18.2821L130.724 20.4817C130.34 20.8988 129.924 21.2859 129.481 21.6394C129.045 21.9838 128.572 22.2782 128.071 22.5169C127.536 22.7685 126.973 22.9543 126.394 23.0703C125.725 23.2045 125.044 23.2697 124.361 23.2648Z" fill="#121212"/>
<path d="M134.76 7.44617H146.459V10.4886H138.124V13.6421H145.464V16.6845H138.136V19.9492H146.575V22.9916H134.767L134.76 7.44617Z" fill="#121212"/>
</svg>
