<svg width="122" height="26" viewBox="0 0 122 26" fill="none" xmlns="http://www.w3.org/2000/svg">
<path d="M25.0049 16.0351C23.3167 22.7314 16.4823 26.8245 9.68185 25.1494C2.92736 23.4757 -1.20137 16.7003 0.488272 9.95838C2.17656 3.26209 9.01087 -0.831059 15.8114 0.84402C22.5659 2.51776 26.6946 9.29318 25.0049 16.0351Z" fill="#121212"/>
<path d="M18.3132 11.2003C18.5635 9.52652 17.281 8.62527 15.5305 8.03785L16.0933 5.77401L14.7175 5.43337L14.1547 7.63283L13.0292 7.38472L13.592 5.18525L12.2162 4.8446L11.6534 7.10844L10.7782 6.89118L8.88424 6.42581L8.50952 7.88228L9.51059 8.13039C9.70483 8.15234 9.88256 8.24921 10.0053 8.40004C10.1281 8.55087 10.1861 8.74355 10.1667 8.93642L9.51059 11.5114C9.5417 11.5114 9.60528 11.5422 9.66751 11.5422C9.63639 11.5422 9.57281 11.5114 9.51059 11.5114L8.60421 15.1083C8.54199 15.2639 8.35395 15.5429 7.97922 15.449C7.97922 15.4798 6.97816 15.2009 6.97816 15.2009L6.30176 16.7834L8.1145 17.2179L9.11557 17.4661L8.55281 19.746L9.9286 20.0866L10.4914 17.8228L11.5736 18.1018L11.0108 20.3656L12.3866 20.7062L12.9494 18.4263C15.3262 18.8608 17.0754 18.7053 17.8276 16.5661C18.4228 14.8629 17.7965 13.8839 16.5451 13.2173C17.484 13.0296 18.1414 12.4422 18.3281 11.2016L18.3132 11.2003ZM15.1544 15.6341C14.7161 17.3373 11.8401 16.4092 10.9013 16.192L11.6521 13.1543C12.5909 13.3716 15.5927 13.8249 15.1693 15.6354L15.1544 15.6341ZM15.5927 11.2003C15.218 12.7506 12.7789 11.9754 11.997 11.7582L12.6734 8.99945C13.4553 9.21671 15.9878 9.55736 15.5819 11.1989L15.5927 11.2003Z" fill="white"/>
<path d="M37.1388 8.03517C38.171 8.03517 39.0327 8.22293 39.7971 8.56223C40.5479 8.93373 41.1728 9.3991 41.6423 10.0187C42.1428 10.6383 42.4864 11.3518 42.7245 12.1886C42.9542 13.059 43.0697 13.9551 43.0681 14.8548C43.0736 16.2691 42.7973 17.6706 42.2551 18.9788C41.7435 20.2376 40.9895 21.3855 40.0351 22.3584C39.087 23.3209 37.962 24.0947 36.7208 24.6384C35.4087 25.2034 33.9914 25.4886 32.561 25.4752H31.5599C31.0905 25.4752 30.5277 25.4135 29.9027 25.3197L27.933 24.9482C27.2567 24.7926 26.5884 24.5458 25.9634 24.2776L31.499 1.24234L36.4394 0.467163L34.4697 8.65209C34.9081 8.46433 35.3139 8.31144 35.7522 8.21756C36.1995 8.0905 36.6627 8.02728 37.128 8.0298L37.1388 8.03517ZM32.9803 21.6155C33.7311 21.6155 34.4183 21.4277 35.0772 21.0884C35.7397 20.7174 36.3235 20.2228 36.7966 19.6319C37.266 19.0418 37.6407 18.3605 37.9221 17.5854C38.2035 16.8102 38.3279 16.035 38.3279 15.1981C38.3279 14.1749 38.171 13.401 37.8274 12.8109C37.4838 12.253 36.8574 11.9432 35.9511 11.9432C35.6399 11.9432 35.2747 12.0049 34.7944 12.0988C34.3142 12.1927 33.888 12.4394 33.512 12.7694L31.4151 21.4505C31.5396 21.4813 31.6654 21.4813 31.7587 21.5122C31.8521 21.543 31.9481 21.543 32.0699 21.5739C32.1646 21.5739 32.3202 21.6047 32.4446 21.6047H32.9763L32.9803 21.6155ZM48.2398 25.1024H43.5051L47.4958 8.41068H52.2495L48.2398 25.1024ZM50.5233 6.37753C49.8789 6.38604 49.2504 6.17806 48.7404 5.78743C48.2087 5.38509 47.9287 4.79499 47.9287 3.99032C47.9287 3.55579 48.0234 3.1226 48.2101 2.74977C48.3841 2.36751 48.6281 2.02056 48.9298 1.72649C49.241 1.45316 49.5882 1.22306 49.9619 1.04251C50.3678 0.886938 50.7736 0.794398 51.2133 0.794398C51.8578 0.785887 52.4862 0.99387 52.9963 1.3845C53.5279 1.78684 53.8079 2.37693 53.8079 3.18161C53.8079 3.61614 53.7132 4.04933 53.5266 4.42216C53.3525 4.80442 53.1085 5.15137 52.8069 5.44544C52.5255 5.7244 52.1508 5.94166 51.7747 6.11601C51.3986 6.29035 50.9928 6.36412 50.5233 6.36412V6.37753ZM56.4026 4.26659L61.3755 3.49142L60.1552 8.42141H65.4717L64.5018 12.3107H59.2164L57.8095 18.1392C57.6953 18.5865 57.622 19.0429 57.5903 19.5032C57.5606 19.9364 57.6215 20.2784 57.7473 20.5761C57.8084 20.7345 57.9008 20.8791 58.019 21.0016C58.1372 21.1242 58.279 21.222 58.4358 21.2896C58.7795 21.4451 59.2475 21.5377 59.8427 21.5377C60.3433 21.5377 60.8438 21.476 61.3308 21.3821C61.8215 21.2909 62.3028 21.1558 62.7688 20.9784L63.1125 24.6062C62.4369 24.8433 61.7475 25.0399 61.0481 25.1949C60.2973 25.3827 59.422 25.443 58.3898 25.443C56.9207 25.443 55.7925 25.2258 54.9808 24.7926C54.1691 24.3594 53.605 23.7693 53.2628 23.025C52.9205 22.2807 52.7622 21.413 52.8245 20.45C52.8556 19.4884 53.0138 18.4651 53.2628 17.3654L56.4026 4.26659ZM65.2526 18.4356C65.2548 17.0536 65.4875 15.6815 65.9411 14.3747C66.388 13.1525 67.0672 12.0266 67.9419 11.0581C68.8172 10.0965 69.8805 9.35484 71.1318 8.79425C72.3832 8.23365 73.7589 7.95738 75.2917 7.95738C76.2616 7.95738 77.1044 8.05126 77.8565 8.23634C78.6087 8.42141 79.2946 8.63868 79.9209 8.94982L78.2949 12.6379C77.8566 12.4502 77.4196 12.3295 76.9826 12.1726C76.5132 12.017 75.9505 11.9553 75.2944 11.9553C73.6981 11.9553 72.4805 12.4824 71.5417 13.5673C70.6029 14.6523 70.1348 16.0779 70.1348 17.9072C70.1348 18.9801 70.3851 19.8599 70.8545 20.5117C71.3239 21.1823 72.1992 21.5041 73.4519 21.5041C74.0513 21.5068 74.6492 21.4443 75.2348 21.3177C75.7585 21.2074 76.2714 21.0517 76.7676 20.8524L77.1112 24.6343L75.1415 25.254C74.4218 25.4417 73.5452 25.5329 72.5441 25.5329C71.2319 25.5329 70.105 25.3451 69.1987 24.975C68.3352 24.6247 67.5567 24.0962 66.9152 23.4247C66.3153 22.7796 65.8761 22.0043 65.6327 21.1608C65.3793 20.2735 65.2532 19.3552 65.258 18.433L65.2526 18.4356ZM86.2669 25.5235C85.1413 25.5235 84.1403 25.3358 83.3273 25.0273C82.4831 24.6867 81.7945 24.2226 81.2629 23.6017C80.7182 22.9636 80.3037 22.2266 80.0427 21.4317C79.7613 20.5949 79.6368 19.6641 79.6368 18.673C79.6368 17.4016 79.856 16.1302 80.2618 14.8602C80.6549 13.6184 81.2809 12.4613 82.107 11.4497C82.9187 10.4264 83.9198 9.58954 85.0778 8.96859C86.2344 8.31815 87.5804 8.007 89.1118 8.007C90.1134 8.00125 91.1082 8.16919 92.0514 8.50322C92.8956 8.84387 93.5841 9.3079 94.1158 9.92884C94.6605 10.5669 95.0749 11.3039 95.336 12.0988C95.6174 12.9357 95.7418 13.8664 95.7418 14.8575C95.7418 16.1289 95.5525 17.4003 95.1466 18.6703C94.7408 19.9404 94.1455 21.0884 93.3636 22.0808C92.5817 23.1041 91.5806 23.9101 90.3929 24.5619C89.2051 25.2137 87.828 25.5235 86.2669 25.5235ZM88.6437 11.9446C87.9817 11.9447 87.3363 12.1506 86.7985 12.5333C86.2669 12.9357 85.8286 13.4319 85.4538 14.0528C85.0791 14.6738 84.8289 15.3242 84.6422 16.0685C84.4555 16.8129 84.3608 17.4942 84.3608 18.1473C84.3608 19.2014 84.5502 20.0249 84.8613 20.6284C85.2049 21.2185 85.8313 21.5269 86.7065 21.5269C87.4262 21.5269 88.0187 21.3392 88.5517 20.9368C89.0847 20.5345 89.5217 20.0383 89.8964 19.4173C90.2711 18.7964 90.5214 18.146 90.7081 17.4016C90.8906 16.7234 90.9851 16.0248 90.9895 15.3229C90.9895 14.2687 90.8326 13.4453 90.4889 12.8418C90.1453 12.2383 89.519 11.9432 88.6437 11.9432V11.9446ZM100.904 25.0877H96.1693L100.174 8.408H104.927L100.904 25.0877ZM103.188 6.36278C102.543 6.37129 101.915 6.16331 101.405 5.77268C100.873 5.37034 100.593 4.78024 100.593 3.97556C100.593 3.54104 100.688 3.10785 100.874 2.73502C101.048 2.35276 101.292 2.0058 101.594 1.71173C101.905 1.43841 102.252 1.20831 102.626 1.02776C103.032 0.872186 103.438 0.779646 103.878 0.779646C104.522 0.771135 105.15 0.979118 105.661 1.36974C106.192 1.77208 106.472 2.36218 106.472 3.16686C106.472 3.60139 106.378 4.03457 106.191 4.40741C106.017 4.78966 105.773 5.13662 105.471 5.43069C105.16 5.70401 104.813 5.93411 104.439 6.11467C104.063 6.30243 103.657 6.36278 103.188 6.36278ZM108.344 9.15233L109.532 8.78084L111.001 8.40934C111.599 8.27669 112.205 8.1835 112.815 8.13039L115.099 8.007C117.602 8.007 119.32 8.72048 120.259 10.177C121.197 11.6026 121.384 13.5875 120.759 16.0672L118.57 25.0581H113.817L115.913 16.2536L116.224 14.6416C116.287 14.1145 116.287 13.68 116.193 13.2776C116.116 12.8973 115.905 12.5565 115.598 12.3161C115.284 12.0679 114.816 11.9446 114.16 11.9446C113.535 11.9446 112.909 12.0063 112.284 12.1323L109.172 25.03H104.419L108.344 9.15233Z" fill="#121212"/>
</svg>
