<svg width="126" height="22" viewBox="0 0 126 22" fill="none" xmlns="http://www.w3.org/2000/svg">
<g clip-path="url(#clip0_205_11873)">
<path d="M11.0626 1.15894H22.8255C22.8184 1.31452 22.7646 1.46436 22.6712 1.58899C22.273 2.27191 21.9146 2.9827 21.5234 3.66562C20.9699 4.6462 20.4522 5.64469 19.8897 6.62128C19.5334 7.32411 19.1312 8.00504 18.7509 8.69592C16.4652 8.69592 14.1795 8.69592 11.8938 8.69592C11.7744 8.69592 11.6559 8.70189 11.5364 8.70886C11.4369 8.97168 11.2716 9.20164 11.1382 9.44852C10.964 9.73125 10.8227 10.0329 10.6504 10.3156C10.4683 10.6959 10.2164 11.0364 10.0332 11.4156C9.65493 12.0577 9.30153 12.7098 8.9312 13.3589C8.54494 14.0225 8.16731 14.6955 7.79831 15.3778C7.64215 15.6196 7.49828 15.8691 7.36726 16.1254C6.59375 17.4713 5.84513 18.8292 5.07062 20.1741C5.00493 20.3187 4.9184 20.4529 4.81378 20.5723C3.48976 20.5634 2.16573 20.5723 0.841708 20.5723C0.678634 20.5754 0.516527 20.5982 0.358887 20.64C0.358887 20.2737 0.603782 19.98 0.769036 19.6724C0.968137 19.2592 1.23394 18.876 1.43403 18.4618C3.02087 15.6227 4.59079 12.7735 6.17265 9.93234C6.53103 9.31513 6.83864 8.68497 7.19902 8.0797C7.64899 7.2833 8.0681 6.46897 8.53698 5.68152C8.68631 5.35201 8.8874 5.05037 9.05166 4.72882C9.63502 3.69051 10.2074 2.64622 10.7888 1.60791C10.8578 1.44575 10.95 1.29451 11.0626 1.15894Z" fill="#121212"/>
<path d="M24.6931 5.33906C25.4766 3.97024 26.2331 2.58648 27.0276 1.22363H31.2764C31.3383 1.22676 31.3997 1.23644 31.4596 1.2525C31.3182 1.46654 31.1997 1.69351 31.0753 1.91651C30.0506 3.75554 29.0289 5.59557 28.0101 7.43659C27.5821 8.18621 27.1839 8.95275 26.7498 9.69839L26.707 9.71332L26.699 9.8069C24.7014 13.3907 22.7104 16.9772 20.726 20.5663C16.8256 20.5703 12.9249 20.5703 9.0238 20.5663C9.2458 20.1024 9.50862 19.6594 9.7555 19.2085C10.8665 17.1657 12.0063 15.1408 13.1014 13.098C15.4979 13.0941 17.8944 13.0941 20.291 13.098C21.7713 10.5197 23.2197 7.92141 24.6891 5.33906H24.6931Z" fill="#121212"/>
<path d="M68.5421 1.1709V20.8023H71.9438V6.9976L78.1488 16.0896L84.304 6.78158V20.8023H87.8052V1.1709H84.0392L78.1736 10.233L72.2424 1.1709H68.5421Z" fill="#121212"/>
<path d="M52.631 6.23401H54.8539V20.9675H52.631V6.23401Z" fill="#121212"/>
<path d="M52.4398 0.775635H55.0451V3.24748H52.4398V0.775635Z" fill="#121212"/>
<path d="M59.1018 2.01208H61.4244V6.23403H66.0037V8.29175H61.4244V17.0442C61.4204 17.3815 61.4986 17.7147 61.6523 18.0149C62.0456 18.7615 63.1137 19.6475 66.0037 18.6122V20.5196C66.0037 20.5196 63.3656 22.0128 60.9764 20.653C60.9764 20.653 59.7897 20.1492 59.291 18.4489C59.1614 17.9934 59.0977 17.5218 59.1018 17.0482V8.25889L57.1437 8.29175V6.23403H59.1178L59.1018 2.01208Z" fill="#121212"/>
<path d="M91.389 1.1709V20.9347H106.155V17.7491H94.9898V12.5057H104.828V9.3699H94.9729V4.37643H106.04V1.1709H91.389Z" fill="#121212"/>
<path d="M107.541 1.1709H111.747L116.575 8.10958L121.366 1.1709H125.572L118.703 10.8094L126 20.9178H121.57L116.592 13.5351L111.374 20.9347H107.168L114.36 10.897L107.541 1.1709Z" fill="#121212"/>
<path d="M45.8277 10.6809C45.8277 10.6809 49.08 9.45344 48.8809 5.91939C48.8809 5.91939 48.8541 2.52073 45.0273 1.47146C44.3911 1.30098 43.7348 1.21661 43.0761 1.22059H33.8986L33.9234 20.852H43.8039C43.8039 20.852 49.5858 20.7276 49.9929 15.5758C49.9929 15.5758 50.4071 11.9751 45.8277 10.6809ZM36.2709 3.24745H42.1284C46.7237 3.23152 46.5913 6.46692 46.5913 6.46692C46.66 10.1583 42.443 10.0836 42.443 10.0836H36.2709V3.24745ZM43.4385 18.7774H36.2709V11.9422H43.1239C47.7192 11.9253 47.5868 15.1607 47.5868 15.1607C47.6555 18.852 43.4385 18.7774 43.4385 18.7774Z" fill="#121212"/>
</g>
<defs>
<clipPath id="clip0_205_11873">
<rect width="125.641" height="20.4487" fill="white" transform="translate(0.359009 0.775635)"/>
</clipPath>
</defs>
</svg>
