<svg width="502" height="423" viewBox="0 0 502 423" fill="none" xmlns="http://www.w3.org/2000/svg">
<path d="M501.233 397.765V398.981C501.233 400.207 500.578 401.343 499.519 401.956L466.773 420.801C466.244 421.107 465.649 421.258 465.053 421.258C464.464 421.258 463.868 421.107 463.339 420.801L403.268 386.12C402.203 385.506 401.548 384.371 401.548 383.144V382.308L465.051 418.972L501.233 397.765Z" fill="#27DEBF"/>
<path d="M401.551 382.31L437.169 361.749C437.804 361.383 438.583 361.383 439.217 361.749L501.008 397.428C501.311 397.603 501.311 398.041 501.008 398.217L465.057 418.977L401.551 382.31Z" fill="#FAFAFA"/>
<path d="M465.383 415.951L484.593 404.871L428.422 372.44L409.11 383.462L465.383 415.951Z" fill="#E0E0E0"/>
<path d="M474.824 385.129L474.47 385.333L465.055 390.768L448.31 381.1L447.961 380.902L457.732 375.263L474.824 385.129Z" fill="#E0E0E0"/>
<path d="M474.47 385.333L465.055 390.768L448.31 381.1L457.732 375.665L474.47 385.333Z" fill="#27DEBF"/>
<path opacity="0.1" d="M465.055 418.974V421.258C464.466 421.258 463.87 421.107 463.341 420.801L403.27 386.12C402.205 385.506 401.55 384.371 401.55 383.144V382.308L465.055 418.974Z" fill="black" stroke="black" stroke-width="1.90501" stroke-miterlimit="10"/>
<path d="M464.087 419.48C462.95 419.919 461.658 419.835 460.582 419.21L400.776 384.68C399.725 384.072 399.003 383.032 398.799 381.835L392.251 342.79C392.215 342.567 392.198 342.344 392.198 342.123C392.198 341.036 392.63 339.996 393.4 339.232L455.551 375.12C456.326 375.572 456.862 376.341 457.012 377.225L464.087 419.48Z" fill="#27DEBF"/>
<path d="M465.055 418.976L464.645 419.21C464.464 419.313 464.278 419.402 464.087 419.48L457.01 377.225C456.86 376.341 456.324 375.572 455.549 375.12L393.398 339.232C393.638 338.992 393.922 338.78 394.227 338.601L456.503 374.556C457.279 375.008 457.814 375.777 457.965 376.661L465.055 418.976Z" fill="#FAFAFA"/>
<path d="M430.403 383.436C429.965 380.822 427.265 377.349 424.375 375.68C421.484 374.011 419.497 374.777 419.935 377.391C420.373 380.005 423.072 383.477 425.962 385.146C428.854 386.817 430.841 386.051 430.403 383.436Z" fill="#455A64"/>
<path d="M1.2356 375.676V376.958C1.2356 378.252 1.9271 379.45 3.04343 380.098L37.5852 399.975C38.1433 400.299 38.772 400.457 39.3987 400.457C40.0198 400.457 40.6484 400.299 41.2066 399.975L104.571 363.393C105.693 362.745 106.385 361.547 106.385 360.253V359.371L39.3987 398.045L1.2356 375.676Z" fill="#27DEBF"/>
<g opacity="0.5">
<path d="M1.2356 375.676V376.958C1.2356 378.252 1.9271 379.45 3.04343 380.098L37.5852 399.975C38.1433 400.299 38.772 400.457 39.3987 400.457C40.0198 400.457 40.6484 400.299 41.2066 399.975L104.571 363.393C105.693 362.745 106.385 361.547 106.385 360.253V359.371L39.3987 398.045L1.2356 375.676Z" fill="white"/>
</g>
<g opacity="0.1">
<path d="M1.2356 375.676V376.958C1.2356 378.252 1.9271 379.45 3.04343 380.098L37.5852 399.975C38.1433 400.299 38.772 400.457 39.3987 400.457C40.0198 400.457 40.6484 400.299 41.2066 399.975L104.571 363.393C105.693 362.745 106.385 361.547 106.385 360.253V359.371L39.3987 398.045L1.2356 375.676Z" fill="black" stroke="black" stroke-width="1.90501" stroke-miterlimit="10"/>
</g>
<path d="M106.385 359.373L68.814 337.685C68.1453 337.3 67.3223 337.3 66.6556 337.685L1.47746 375.32C1.15742 375.505 1.15742 375.966 1.47746 376.151L39.4006 398.049L106.385 359.373Z" fill="#27DEBF"/>
<g opacity="0.85">
<path d="M106.385 359.373L68.814 337.685C68.1453 337.3 67.3223 337.3 66.6556 337.685L1.47746 375.32C1.15742 375.505 1.15742 375.966 1.47746 376.151L39.4006 398.049L106.385 359.373Z" fill="white"/>
</g>
<path d="M39.635 394.513L19.3713 382.826L78.042 348.962L98.4104 360.588L39.635 394.513Z" fill="#27DEBF"/>
<g opacity="0.6">
<path d="M39.635 394.513L19.3713 382.826L78.042 348.962L98.4104 360.588L39.635 394.513Z" fill="white"/>
</g>
<path d="M29.0927 362.347L29.466 362.562L39.3988 368.296L57.062 358.099L57.4297 357.889L47.1236 351.94L29.0927 362.347Z" fill="#27DEBF"/>
<path d="M29.4659 362.562L39.3987 368.296L57.062 358.099L47.1235 352.365L29.4659 362.562Z" fill="#27DEBF"/>
<g opacity="0.6">
<path d="M29.4659 362.562L39.3987 368.296L57.062 358.099L47.1235 352.365L29.4659 362.562Z" fill="white"/>
</g>
<path d="M39.3987 398.047V400.457C40.0197 400.457 40.6484 400.299 41.2065 399.975L104.571 363.393C105.693 362.745 106.385 361.547 106.385 360.253V359.371L39.3987 398.047Z" fill="#27DEBF"/>
<g opacity="0.03">
<path d="M39.3987 398.047V400.457C40.0197 400.457 40.6484 400.299 41.2065 399.975L104.571 363.393C105.693 362.745 106.385 361.547 106.385 360.253V359.371L39.3987 398.047Z" fill="white"/>
</g>
<g opacity="0.2">
<path d="M39.3987 398.047V400.457C40.0197 400.457 40.6484 400.299 41.2065 399.975L104.571 363.393C105.693 362.745 106.385 361.547 106.385 360.253V359.371L39.3987 398.047Z" fill="black" stroke="black" stroke-width="1.90501" stroke-miterlimit="10"/>
</g>
<path d="M40.4198 398.582C41.6181 399.045 42.982 398.956 44.1174 398.296L107.202 361.874C108.313 361.234 109.073 360.137 109.288 358.874L116.196 317.688C116.234 317.453 116.253 317.217 116.253 316.983C116.253 315.836 115.795 314.739 114.984 313.933L49.4248 351.789C48.6056 352.266 48.0418 353.077 47.8836 354.009L40.4198 398.582Z" fill="#27DEBF"/>
<g opacity="0.4">
<path d="M40.4198 398.582C41.6181 399.045 42.982 398.956 44.1174 398.296L107.202 361.874C108.313 361.234 109.073 360.137 109.288 358.874L116.196 317.688C116.234 317.453 116.253 317.217 116.253 316.983C116.253 315.836 115.795 314.739 114.984 313.933L49.4248 351.789C48.6056 352.266 48.0418 353.077 47.8836 354.009L40.4198 398.582Z" fill="white"/>
</g>
<path d="M39.3987 398.049L39.8292 398.296C40.0197 398.405 40.216 398.5 40.4198 398.582L47.8836 354.009C48.0417 353.077 48.6075 352.266 49.4248 351.789L114.984 313.933C114.731 313.679 114.431 313.457 114.11 313.266L48.417 351.193C47.5998 351.669 47.034 352.481 46.8759 353.412L39.3987 398.049Z" fill="#27DEBF"/>
<g opacity="0.6">
<path d="M39.3987 398.049L39.8292 398.296C40.0197 398.405 40.216 398.5 40.4198 398.582L47.8836 354.009C48.0417 353.077 48.6075 352.266 49.4248 351.789L114.984 313.933C114.731 313.679 114.431 313.457 114.11 313.266L48.417 351.193C47.5998 351.669 47.034 352.481 46.8759 353.412L39.3987 398.049Z" fill="white"/>
</g>
<path d="M48.4799 352.647L47.4645 352.058C47.1692 352.454 46.9616 352.913 46.8759 353.412L39.3987 398.049L39.8292 398.296C40.0197 398.405 40.216 398.5 40.4198 398.582L47.8836 354.009C47.9694 353.506 48.1808 353.045 48.4799 352.647Z" fill="#27DEBF"/>
<path opacity="0.5" d="M48.4799 352.647L47.4645 352.058C47.1692 352.454 46.9616 352.913 46.8759 353.412L39.3987 398.049L39.8292 398.296C40.0197 398.405 40.216 398.5 40.4198 398.582L47.8836 354.009C47.9694 353.506 48.1808 353.045 48.4799 352.647Z" fill="white"/>
<path opacity="0.1" d="M48.4799 352.647L47.4645 352.058C47.1692 352.454 46.9616 352.913 46.8759 353.412L39.3987 398.049L39.8292 398.296C40.0197 398.405 40.216 398.5 40.4198 398.582L47.8836 354.009C47.9694 353.506 48.1808 353.045 48.4799 352.647Z" fill="black" stroke="black" stroke-width="1.90501" stroke-miterlimit="10"/>
<path d="M75.9502 360.562C76.4132 357.803 79.2592 354.142 82.3092 352.382C85.3591 350.621 87.4565 351.429 86.9936 354.188C86.5307 356.944 83.6846 360.608 80.6347 362.368C77.5847 364.128 75.4873 363.318 75.9502 360.562Z" fill="#455A64"/>
<path d="M254.01 147.787C262.558 142.853 269.487 146.854 269.487 156.722C269.487 166.592 262.558 178.593 254.01 183.527C245.462 188.461 238.534 184.461 238.534 174.593C238.534 164.725 245.462 152.723 254.01 147.787Z" fill="#27DEBF"/>
<path d="M262.548 168.558L245.472 178.416C245.108 178.626 244.813 178.403 244.813 177.917V164.272L253.509 168.988C253.804 169.12 254.216 168.884 254.511 168.409L263.208 153.649V167.295C263.209 167.782 262.914 168.348 262.548 168.558Z" fill="#FAFAFA"/>
<path d="M244.813 163.443L263.208 152.822L254.483 166.068C254.199 166.498 253.82 166.717 253.536 166.615L244.813 163.443Z" fill="#FAFAFA"/>
<path d="M261.463 205.976C270.01 201.042 276.939 205.043 276.939 214.911C276.939 224.78 270.01 236.782 261.463 241.716C252.915 246.65 245.986 242.649 245.986 232.781C245.986 222.913 252.915 210.912 261.463 205.976Z" fill="#27DEBF"/>
<path d="M251.145 223.735V234.951C251.145 235.7 251.591 236.064 252.206 235.877C252.216 235.877 252.227 235.877 252.227 235.866C252.332 235.835 252.425 235.793 252.519 235.73L259.449 231.825L261.404 235.203C261.413 235.224 261.434 235.254 261.445 235.266L261.497 235.296C261.653 235.389 261.861 235.338 261.924 235.151L263.992 229.215L270.081 225.67C271.308 224.973 271.329 224.266 271.329 223.394V212.177C271.329 212.053 271.308 211.927 271.277 211.792C271.121 211.209 270.591 211.022 269.957 211.386L252.52 221.372C252.136 221.58 251.793 221.955 251.543 222.38C251.299 222.809 251.145 223.298 251.145 223.735ZM254.845 229.109C254.845 228.693 255.218 228.152 255.677 227.882L266.783 221.513C267.25 221.254 267.614 221.369 267.614 221.772C267.614 222.199 267.25 222.74 266.783 223.009L255.677 229.377C255.22 229.638 254.845 229.524 254.845 229.109ZM254.845 225.356C254.845 224.94 255.218 224.39 255.677 224.119L266.783 217.751C267.25 217.48 267.614 217.606 267.614 218.021C267.614 218.427 267.25 218.987 266.783 219.248L255.677 225.626C255.22 225.897 254.845 225.762 254.845 225.356Z" fill="#FAFAFA"/>
<path d="M176.629 192.85C185.176 187.916 192.105 191.917 192.105 201.785C192.105 211.655 185.176 223.656 176.629 228.59C168.081 233.524 161.152 229.524 161.152 219.656C161.152 209.786 168.081 197.784 176.629 192.85Z" fill="#27DEBF"/>
<path d="M168.89 208.157V222.218C168.89 223.269 169.63 223.696 170.54 223.17L182.717 216.139C183.628 215.613 184.367 214.333 184.367 213.282V199.221C184.367 198.169 183.628 197.742 182.717 198.268L170.54 205.298C169.628 205.827 168.89 207.105 168.89 208.157Z" fill="#FAFAFA"/>
<path d="M170.237 220.349L183.544 212.666V210.721L180.528 207.593L178.718 210.569L179.248 212.234L174.276 206.585L170.237 215.512V220.349Z" fill="#27DEBF"/>
<path d="M177.766 205.482C177.766 206.467 178.457 206.867 179.311 206.374C180.164 205.881 180.856 204.682 180.856 203.697C180.856 202.711 180.164 202.312 179.311 202.804C178.459 203.297 177.766 204.496 177.766 205.482Z" fill="#27DEBF"/>
<path d="M296.938 156.956C305.486 152.022 312.414 156.023 312.414 165.891C312.414 175.761 305.486 187.762 296.938 192.696C288.39 197.63 281.461 193.63 281.461 183.76C281.461 173.892 288.39 161.89 296.938 156.956Z" fill="#27DEBF"/>
<path d="M300.913 166.79C300.666 166.933 300.466 166.78 300.466 166.453V161.065L290.442 166.853C290.095 167.053 289.813 167.59 289.813 168.053V189.115C289.813 189.578 290.095 189.789 290.442 189.589L304.325 181.573C304.672 181.373 304.954 180.836 304.954 180.373V164.458L300.913 166.79ZM303.055 179.14L291.712 185.69C291.468 185.831 291.265 185.682 291.265 185.351C291.265 185.019 291.468 184.636 291.712 184.495L303.055 177.946C303.302 177.803 303.502 177.953 303.502 178.283C303.502 178.616 303.304 178.997 303.055 179.14ZM303.055 175.86L291.712 182.409C291.468 182.55 291.265 182.402 291.265 182.072C291.265 181.741 291.468 181.358 291.712 181.217L303.055 174.667C303.302 174.524 303.502 174.675 303.502 175.004C303.502 175.336 303.304 175.717 303.055 175.86ZM303.055 172.579L291.712 179.129C291.468 179.27 291.265 179.121 291.265 178.792C291.265 178.46 291.468 178.077 291.712 177.936L303.055 171.387C303.302 171.244 303.502 171.394 303.502 171.726C303.502 172.055 303.304 172.435 303.055 172.579ZM303.055 169.299L291.712 175.848C291.468 175.989 291.265 175.841 291.265 175.511C291.265 175.18 291.468 174.797 291.712 174.656L303.055 168.106C303.302 167.963 303.502 168.114 303.502 168.445C303.502 168.775 303.304 169.154 303.055 169.299ZM298.218 168.804L291.712 172.566C291.468 172.707 291.265 172.558 291.265 172.227C291.265 171.895 291.468 171.513 291.712 171.372L298.218 167.609C298.467 167.466 298.666 167.617 298.666 167.948C298.666 168.282 298.466 168.661 298.218 168.804Z" fill="#FAFAFA"/>
<path d="M304.308 163.637L301.359 165.338V161.408L304.308 163.637Z" fill="#FAFAFA"/>
<path d="M173.335 252.832C181.883 247.898 188.811 251.898 188.811 261.768C188.811 271.638 181.883 283.64 173.335 288.574C164.787 293.508 157.858 289.509 157.858 279.639C157.858 269.767 164.789 257.768 173.335 252.832Z" fill="#27DEBF"/>
<path d="M181.42 258.421C181.261 258.282 181.052 258.215 180.846 258.24L173.516 259.082C173.346 259.101 173.188 259.179 173.07 259.303L165.739 266.925C165.608 267.062 165.534 267.245 165.534 267.435V275.957C165.534 278.458 166.713 281.098 168.538 282.685C169.759 283.746 171.201 284.295 172.75 284.295C173.062 284.295 173.38 284.272 173.702 284.226C173.862 284.203 174.011 284.129 174.123 284.015C178.979 279.087 181.665 271.118 181.665 267.493V258.971C181.665 258.762 181.576 258.562 181.42 258.421ZM180.195 267.493C180.195 270.792 177.705 277.827 173.634 282.352L173.601 260.873L173.946 260.515L180.193 259.798V267.493H180.195Z" fill="#FAFAFA"/>
<path d="M126.252 243.39C134.8 238.456 141.729 242.457 141.729 252.325C141.729 262.195 134.8 274.196 126.252 279.13C117.705 284.064 110.776 280.064 110.776 270.194C110.774 260.326 117.705 248.324 126.252 243.39Z" fill="#27DEBF"/>
<path d="M134.476 267.372L118.026 276.871C117.878 276.957 117.76 276.865 117.76 276.669V256.493C117.76 256.297 117.88 256.068 118.026 255.982C118.173 255.897 118.293 255.988 118.293 256.184V276.004L134.476 266.66C134.623 266.574 134.743 266.666 134.743 266.862C134.743 267.06 134.625 267.287 134.476 267.372Z" fill="#FAFAFA"/>
<path d="M131.068 251.689L132.958 250.599C133.07 250.534 133.164 250.603 133.164 250.753V265.477C133.164 265.628 133.072 265.803 132.958 265.869L131.068 266.959C130.956 267.024 130.862 266.955 130.862 266.805V252.081C130.862 251.929 130.954 251.755 131.068 251.689Z" fill="#FAFAFA"/>
<path d="M127.479 260.97L129.369 259.878C129.481 259.813 129.573 259.882 129.573 260.032V267.548C129.573 267.698 129.481 267.874 129.369 267.94L127.479 269.03C127.367 269.095 127.273 269.026 127.273 268.876V261.36C127.275 261.21 127.367 261.034 127.479 260.97Z" fill="#FAFAFA"/>
<path d="M123.892 259.318L125.782 258.228C125.894 258.164 125.987 258.232 125.987 258.383V269.62C125.987 269.771 125.896 269.946 125.782 270.013L123.892 271.103C123.78 271.167 123.688 271.099 123.688 270.948V259.711C123.686 259.558 123.778 259.383 123.892 259.318Z" fill="#FAFAFA"/>
<path d="M120.303 267.009L122.193 265.919C122.305 265.854 122.398 265.923 122.398 266.073V271.691C122.398 271.842 122.307 272.017 122.193 272.084L120.303 273.173C120.191 273.238 120.099 273.169 120.099 273.019V267.401C120.099 267.249 120.191 267.073 120.303 267.009Z" fill="#FAFAFA"/>
<path d="M120.507 263.633C120.463 263.658 120.419 263.663 120.383 263.644C120.303 263.6 120.294 263.444 120.362 263.298L124.692 254.009C124.753 253.875 124.862 253.793 124.94 253.816L128.171 254.721L132.4 246.24C132.472 246.095 132.592 246.021 132.67 246.072C132.747 246.124 132.752 246.282 132.68 246.427L128.342 255.125C128.279 255.253 128.177 255.327 128.1 255.306L124.877 254.403L120.655 263.459C120.614 263.54 120.56 263.602 120.507 263.633Z" fill="#FAFAFA"/>
<path d="M132.783 248.204C132.678 248.265 132.592 248.201 132.592 248.06V246.261L131.243 247.04C131.139 247.101 131.053 247.037 131.053 246.896C131.053 246.755 131.139 246.591 131.243 246.532L132.783 245.642C132.888 245.581 132.973 245.646 132.973 245.787V247.84C132.973 247.98 132.888 248.143 132.783 248.204Z" fill="#FAFAFA"/>
<path d="M393.619 364.191L228.005 268.573" stroke="#27DEBF" stroke-width="1.90501" stroke-linecap="round" stroke-linejoin="round" stroke-dasharray="5.71 5.71"/>
<path d="M225.532 267.146L223.058 265.717V262.86" stroke="#27DEBF" stroke-width="1.90501" stroke-linecap="round" stroke-linejoin="round"/>
<path d="M223.058 257.423V162.298" stroke="#27DEBF" stroke-width="1.90501" stroke-linecap="round" stroke-linejoin="round" stroke-dasharray="5.44 5.44"/>
<path d="M223.058 159.581V156.724" stroke="#27DEBF" stroke-width="1.90501" stroke-linecap="round" stroke-linejoin="round"/>
<path d="M114.984 354.919L207.581 301.459V165.658" stroke="#27DEBF" stroke-width="1.90501" stroke-miterlimit="10" stroke-linecap="round" stroke-linejoin="round" stroke-dasharray="5.72 5.72"/>
<path d="M305.878 58.8423L305.889 58.8194L305.368 58.5184C305.261 58.4594 305.16 58.3908 305.051 58.3355L293.556 51.6985C293.56 51.4299 293.572 51.1593 293.572 50.8926C293.572 36.7746 288.819 26.8876 281.338 22.7289L281.357 22.7251L259.253 9.95771L259.262 9.98057C253.185 6.48297 245.27 6.80491 236.606 11.8075C232.785 14.0135 229.11 16.9663 225.671 20.4753C224.206 18.9779 222.614 17.7035 220.895 16.6843H220.897L199.533 4.39317L199.538 4.41603C191.722 -0.76561 181.252 -0.660834 169.734 5.98957C145.544 19.9552 125.934 57.423 125.934 89.6768C125.934 93.4887 126.216 97.0492 126.74 100.356L123.723 102.099C108.334 110.984 95.8579 134.822 95.8579 155.341C95.8579 166.672 99.666 174.747 105.665 178.222L105.652 178.226L128.016 191.14L128.018 191.132C132.874 193.915 139.157 193.694 146.021 189.732L186.548 166.333L294.498 104.008C303.731 98.678 311.216 84.3752 311.216 72.0631C311.22 65.6165 309.157 61.0197 305.878 58.8423Z" fill="#27DEBF"/>
<path opacity="0.2" d="M305.878 58.8423L305.889 58.8194L305.368 58.5184C305.261 58.4594 305.16 58.3908 305.051 58.3355L293.556 51.6985C293.56 51.4299 293.572 51.1593 293.572 50.8926C293.572 36.7746 288.819 26.8876 281.338 22.7289L281.357 22.7251L259.253 9.95771L259.262 9.98057C253.185 6.48297 245.27 6.80491 236.606 11.8075C232.785 14.0135 229.11 16.9663 225.671 20.4753C224.206 18.9779 222.614 17.7035 220.895 16.6843H220.897L199.533 4.39317L199.538 4.41603C191.722 -0.76561 181.252 -0.660834 169.734 5.98957C145.544 19.9552 125.934 57.423 125.934 89.6768C125.934 93.4887 126.216 97.0492 126.74 100.356L123.723 102.099C108.334 110.984 95.8579 134.822 95.8579 155.341C95.8579 166.672 99.666 174.747 105.665 178.222L105.652 178.226L128.016 191.14L128.018 191.132C132.874 193.915 139.157 193.694 146.021 189.732L186.548 166.333L294.498 104.008C303.731 98.678 311.216 84.3752 311.216 72.0631C311.22 65.6165 309.157 61.0197 305.878 58.8423Z" fill="white"/>
<path opacity="0.35" d="M281.359 22.7193H281.336C275.297 19.3512 267.452 19.7398 258.9 24.6833C254.881 27.0132 251.023 30.1526 247.438 33.896L227.172 22.1249L225.186 20.9724C225.346 20.8009 225.517 20.6295 225.677 20.4694C229.114 16.9642 232.79 14.0191 236.604 11.8035C245.27 6.80287 253.193 6.48283 259.268 9.97662L259.257 9.95376L281.359 22.7193Z" fill="white"/>
<path opacity="0.8" d="M225.675 20.4714C226.201 20.9972 226.69 21.544 227.171 22.1269L225.184 20.9744C225.344 20.801 225.515 20.6296 225.675 20.4714Z" fill="white"/>
<path opacity="0.35" d="M220.354 16.3718L220.343 16.3832C212.715 12.137 202.828 12.6265 192.029 18.8617C181.058 25.1977 171.02 36.3764 163.337 49.7114L141.051 36.8431C148.733 23.508 158.76 12.3294 169.731 5.98186C181.25 -0.662827 191.72 -0.7657 199.542 4.41784L199.531 4.39498L220.354 16.3718Z" fill="white"/>
<path opacity="0.35" d="M149.042 113.236L146.017 114.972C135.593 120.989 126.492 133.89 121.732 147.968L99.4336 135.088C103.236 123.866 109.789 113.408 117.575 106.569L126.744 100.358L149.042 113.236Z" fill="white"/>
<path d="M294.501 59.4212L292.903 60.3452C293.341 57.16 293.574 53.9958 293.574 50.8925C293.574 25.3634 278.053 13.6304 258.906 24.6852C250.025 29.8135 241.927 38.9461 235.793 49.8104C234.928 19.073 215.674 5.21788 192.034 18.8654C167.845 32.831 148.234 70.2988 148.234 102.553C148.234 106.366 148.516 109.925 149.04 113.232L146.023 114.975C130.634 123.86 118.158 147.698 118.158 168.217C118.158 188.735 130.634 198.615 146.023 189.73L186.55 166.331L294.499 104.006C303.733 98.6759 311.218 84.3731 311.218 72.061C311.22 59.7489 303.733 54.0891 294.501 59.4212Z" fill="#27DEBF"/>
<path opacity="0.7" d="M294.501 59.4212L292.903 60.3452C293.341 57.16 293.574 53.9958 293.574 50.8925C293.574 25.3634 278.053 13.6304 258.906 24.6852C250.025 29.8135 241.927 38.9461 235.793 49.8104C234.928 19.073 215.674 5.21788 192.034 18.8654C167.845 32.831 148.234 70.2988 148.234 102.553C148.234 106.366 148.516 109.925 149.04 113.232L146.023 114.975C130.634 123.86 118.158 147.698 118.158 168.217C118.158 188.735 130.634 198.615 146.023 189.73L186.55 166.331L294.499 104.006C303.733 98.6759 311.218 84.3731 311.218 72.061C311.22 59.7489 303.733 54.0891 294.501 59.4212Z" fill="white"/>
<path opacity="0.7" d="M135.164 187.293C128.3 187.292 123.865 179.805 123.865 168.215C123.865 149.862 135.32 127.745 148.876 119.917L151.896 118.174C153.942 116.993 155.049 114.67 154.679 112.337C154.191 109.255 153.944 105.963 153.944 102.551C153.944 72.1677 172.31 36.8431 194.888 23.8071C200.049 20.8276 204.937 19.3188 209.416 19.3188C221.633 19.3188 229.554 31.0633 230.085 49.9705C230.247 55.7522 237.919 57.6534 240.761 52.6166C246.632 42.2209 254.09 34.056 261.758 29.6288C265.659 27.3771 269.33 26.234 272.666 26.234C281.898 26.234 287.86 35.9134 287.86 50.8944C287.86 53.6681 287.653 56.5866 287.243 59.5699C286.597 64.2734 291.642 67.6643 295.753 65.2906L297.351 64.3667C298.759 63.5552 300.066 63.1265 301.135 63.1265C304.156 63.1265 305.509 67.6148 305.509 72.063C305.509 82.3596 299.159 94.725 291.644 99.0646L143.167 184.788C140.287 186.449 137.593 187.293 135.164 187.293Z" fill="white"/>
</svg>
