<svg width="136" height="24" viewBox="0 0 136 24" fill="none" xmlns="http://www.w3.org/2000/svg">
<path d="M28.1318 6.72473C23.232 6.72473 19.4055 10.4124 19.4055 15.348C19.4055 20.2835 23.1365 23.9378 28.1318 23.9378C33.1271 23.9378 36.9199 20.2222 36.9199 15.3201C36.9199 10.4459 33.1889 6.72473 28.1318 6.72473ZM28.1655 20.3837C25.3729 20.3837 23.3332 18.2335 23.3332 15.348C23.3332 12.4346 25.3391 10.2843 28.1318 10.2843C30.9525 10.2843 32.9978 12.468 32.9978 15.3535C32.9978 18.2335 30.9525 20.3837 28.1655 20.3837ZM37.9931 10.4793H40.4262V23.6258H44.3201V7.04225H37.9931V10.4793ZM9.60593 10.2843C11.6512 10.2843 13.2751 11.5321 13.8876 13.3927H18.012C17.2646 9.42088 13.955 6.72473 9.63964 6.72473C4.73987 6.72473 0.91333 10.4124 0.91333 15.348C0.91333 20.289 4.64435 23.9433 9.63964 23.9433C13.8539 23.9433 17.2309 21.2472 17.9782 17.2419H13.8876C13.6226 18.1536 13.064 18.9542 12.2969 19.5215C11.5299 20.0888 10.5966 20.3916 9.63964 20.3837C6.8189 20.3837 4.83539 18.2335 4.83539 15.348C4.83539 12.4346 6.78519 10.2843 9.61155 10.2843H9.60593ZM111.956 13.7492L109.102 13.3314C107.742 13.1364 106.77 12.6908 106.77 11.6324C106.77 10.4793 108.034 9.90551 109.748 9.90551C111.636 9.90551 112.838 10.7021 113.091 12.0168H116.856C116.434 8.68 113.838 6.72473 109.849 6.72473C105.73 6.72473 103.005 8.81369 103.005 11.7605C103.005 14.5792 104.786 16.217 108.388 16.7295L111.242 17.1472C112.642 17.3366 113.417 17.8826 113.417 18.9075C113.417 20.2222 112.057 20.7681 110.175 20.7681C107.871 20.7681 106.573 19.8378 106.376 18.4285H102.55C102.909 21.665 105.472 23.9433 110.136 23.9433C114.389 23.9433 117.215 22.0159 117.215 18.7181C117.215 15.7658 115.17 14.2283 111.956 13.7492ZM42.3703 0.218311C42.0429 0.206894 41.7166 0.261759 41.4113 0.37955C41.106 0.497342 40.8282 0.675586 40.5947 0.903406C40.3612 1.13123 40.177 1.40384 40.0534 1.70459C39.9297 2.00534 39.8692 2.32793 39.8755 2.65264C39.8755 4.06757 40.9431 5.09255 42.3703 5.09255C42.6987 5.10478 43.0261 5.05033 43.3324 4.93255C43.6388 4.81476 43.9176 4.63613 44.1518 4.40763C44.3859 4.17913 44.5705 3.90558 44.6942 3.60378C44.8178 3.30199 44.8779 2.97831 44.8708 2.65264C44.8771 2.32744 44.8165 2.00438 44.6925 1.70324C44.5685 1.4021 44.3838 1.12922 44.1497 0.901323C43.9156 0.673423 43.637 0.495294 43.3311 0.37785C43.0251 0.260407 42.6982 0.206119 42.3703 0.218311ZM99.4987 12.7242C99.4987 9.13121 97.2961 6.7303 92.6211 6.7303C88.2102 6.7303 85.7434 8.94181 85.2602 12.3399H89.1205C89.3171 11.0252 90.3566 9.93337 92.5593 9.93337C94.5372 9.93337 95.5093 10.7968 95.5093 11.8552C95.5093 13.2367 93.728 13.5877 91.5198 13.8105C88.5361 14.1336 84.8332 15.1586 84.8332 19.0078C84.8332 21.9881 87.0807 23.9099 90.6432 23.9099C93.4358 23.9099 95.189 22.7568 96.0655 20.9297C96.1948 22.5618 97.4253 23.6202 99.1448 23.6202H101.415V20.1888H99.5044V12.7242H99.4987ZM95.6778 16.891C95.6778 19.1025 93.728 20.7347 91.3568 20.7347C89.8959 20.7347 88.6597 20.1219 88.6597 18.8407C88.6597 17.2085 90.6432 16.7629 92.4581 16.5679C94.2113 16.4119 95.1834 16.0276 95.6722 15.2867L95.6778 16.891ZM75.0055 6.72473C72.8366 6.72473 71.016 7.62716 69.7237 9.13121V0.0567627H65.8297V23.6202H69.6506V21.4422C70.9542 23.013 72.7972 23.9433 75.0055 23.9433C79.6805 23.9433 83.2149 20.289 83.2149 15.348C83.2149 10.4124 79.6187 6.72473 75.0111 6.72473H75.0055ZM74.4268 20.3837C71.6341 20.3837 69.5944 18.2335 69.5944 15.348C69.5944 12.468 71.6678 10.2843 74.4549 10.2843C77.2812 10.2843 79.2591 12.4346 79.2591 15.3535C79.2591 18.2335 77.2138 20.3837 74.4268 20.3837ZM56.519 6.72473C53.9904 6.72473 52.3328 7.74971 51.3551 9.19249V7.04782H47.4949V23.6202H51.3888V14.6126C51.3888 12.078 53.0127 10.2843 55.412 10.2843C57.6484 10.2843 59.0475 11.8552 59.0475 14.128V23.6202H62.9359V13.8439C62.9359 9.67713 60.767 6.72473 56.519 6.72473ZM135.769 14.802C135.769 10.0615 132.263 6.72473 127.566 6.72473C122.565 6.72473 118.901 10.4459 118.901 15.348C118.901 20.5119 122.823 23.9433 127.627 23.9433C131.684 23.9433 134.859 21.5703 135.674 18.2057H131.617C131.033 19.6763 129.605 20.5119 127.689 20.5119C125.189 20.5119 123.306 18.9744 122.891 16.2782H135.769V14.8076V14.802ZM123.115 13.5208C123.734 11.2146 125.487 10.0949 127.498 10.0949C129.701 10.0949 131.392 11.3427 131.78 13.5208H123.115Z" fill="#121212"/>
</svg>
