<svg width="33" height="32" viewBox="0 0 33 32" fill="none" xmlns="http://www.w3.org/2000/svg">
<path opacity="0.4" d="M22.6355 2.66675H8.51553C5.42219 2.66675 2.91553 5.17341 2.91553 8.25342V16.4934V16.7467C2.91553 19.8401 5.42219 22.3334 8.50219 22.3334H13.3022C14.0355 22.3334 14.6355 22.9334 14.6355 23.6667V24.7601C14.6355 25.4934 14.0355 26.0934 13.3022 26.0934H10.3022C9.78219 26.0934 9.35553 26.5201 9.35553 27.0401C9.35553 27.5601 9.78219 27.9867 10.3022 27.9867H20.8755C21.3955 27.9867 21.8222 27.5601 21.8222 27.0401C21.8222 26.5201 21.3955 26.0934 20.8755 26.0934H17.8755C17.1422 26.0934 16.5422 25.4934 16.5422 24.7601V23.6667C16.5422 22.9334 17.1422 22.3334 17.8755 22.3334H22.6355C25.7289 22.3334 28.2222 19.8267 28.2222 16.7467V16.4934V8.25342C28.2222 5.17341 25.7155 2.66675 22.6355 2.66675Z" fill="url(#paint0_linear_293_139)" fill-opacity="0.8"/>
<path d="M26.4222 12.6667H19.3688C17.0622 12.6667 16.2222 13.5067 16.2222 15.8401V26.1467C16.2222 28.4934 17.0488 29.3201 19.3688 29.3201H26.4222C28.7288 29.3201 29.5688 28.4801 29.5688 26.1467V15.8401C29.5688 13.4934 28.7422 12.6667 26.4222 12.6667ZM22.9022 27.0934C22.0888 27.0934 21.4355 26.4401 21.4355 25.6267C21.4355 24.8134 22.0888 24.1601 22.9022 24.1601C23.7155 24.1601 24.3688 24.8134 24.3688 25.6267C24.3688 26.4401 23.7155 27.0934 22.9022 27.0934Z" fill="url(#paint1_linear_293_139)" fill-opacity="0.8"/>
<path opacity="0.4" d="M24.3689 25.6266C24.3689 26.4399 23.7155 27.0932 22.9022 27.0932C22.0889 27.0932 21.4355 26.4399 21.4355 25.6266C21.4355 24.8132 22.0889 24.1599 22.9022 24.1599C23.7155 24.1599 24.3689 24.8266 24.3689 25.6266Z" fill="url(#paint2_linear_293_139)" fill-opacity="0.8"/>
<defs>
<linearGradient id="paint0_linear_293_139" x1="3.47438" y1="25.8029" x2="28.011" y2="23.4204" gradientUnits="userSpaceOnUse">
<stop stop-color="#288DD1"/>
<stop offset="1" stop-color="#3FE0C8"/>
</linearGradient>
<linearGradient id="paint1_linear_293_139" x1="16.5169" y1="27.8837" x2="29.5007" y2="26.8728" gradientUnits="userSpaceOnUse">
<stop stop-color="#288DD1"/>
<stop offset="1" stop-color="#3FE0C8"/>
</linearGradient>
<linearGradient id="paint2_linear_293_139" x1="21.5003" y1="26.8402" x2="24.3444" y2="26.5639" gradientUnits="userSpaceOnUse">
<stop stop-color="#288DD1"/>
<stop offset="1" stop-color="#3FE0C8"/>
</linearGradient>
</defs>
</svg>
