<svg width="29" height="32" viewBox="0 0 29 32" fill="none" xmlns="http://www.w3.org/2000/svg">
<path d="M19.0731 29.4203C18.0971 29.8987 17.0847 30.3264 16.0627 30.6929C15.7128 30.8184 15.531 31.2036 15.656 31.5541C15.7548 31.8291 16.0133 32.0001 16.29 32.0001C16.3655 32.0001 16.4422 31.9876 16.5172 31.9603C17.5858 31.5774 18.6447 31.1292 19.6656 30.6292C19.9997 30.4656 20.1377 30.0623 19.9741 29.7282C19.8105 29.3942 19.4071 29.2561 19.0731 29.4197V29.4203Z" fill="url(#paint0_linear_232_453)"/>
<path d="M21.1705 23.92C18.9123 25.5407 16.4269 26.7792 13.7835 27.6007C13.4284 27.7109 13.2302 28.0881 13.3404 28.4432C13.4301 28.7318 13.696 28.917 13.9829 28.917C14.0494 28.917 14.1164 28.9073 14.1829 28.8863C16.9643 28.0216 19.5793 26.7184 21.9551 25.0135C22.2573 24.7965 22.326 24.3761 22.1096 24.0739C21.8926 23.7717 21.4722 23.7029 21.1699 23.9194L21.1705 23.92Z" fill="url(#paint1_linear_232_453)"/>
<path d="M27.8701 10.2401C27.5219 10.1106 27.1339 10.2878 27.0043 10.6366C26.3488 12.3994 25.4682 14.0782 24.3871 15.6257C24.1741 15.9307 24.2485 16.35 24.5536 16.563C24.6712 16.6449 24.8052 16.6846 24.9387 16.6846C25.1512 16.6846 25.3603 16.5841 25.4909 16.3972C26.6374 14.7565 27.5713 12.9761 28.2667 11.1064C28.3962 10.7582 28.2189 10.3702 27.8701 10.2406V10.2401Z" fill="url(#paint2_linear_232_453)"/>
<path d="M22.4749 17.9992C19.7912 20.9033 16.3865 23.0468 12.628 24.1978C12.2723 24.3068 12.0724 24.6829 12.1814 25.0385C12.2701 25.3283 12.5371 25.5146 12.8251 25.5146C12.8904 25.5146 12.9569 25.505 13.0228 25.4851C17.0086 24.2642 20.6189 21.9913 23.4639 18.9127C23.7162 18.6395 23.6997 18.214 23.4264 17.9611C23.1532 17.7089 22.7277 17.7254 22.4749 17.9986V17.9992Z" fill="url(#paint3_linear_232_453)"/>
<path d="M19.9497 17.4192C22.1209 15.3501 23.8287 12.7818 24.8876 9.99182C25.0194 9.64414 24.8444 9.25556 24.4967 9.12376C24.1491 8.99196 23.7605 9.16694 23.6287 9.51461C21.6256 14.7934 17.2245 18.9809 11.8565 20.7153C11.5026 20.8295 11.3083 21.209 11.423 21.5629C11.5151 21.8481 11.7792 22.0293 12.0633 22.0293C12.132 22.0293 12.2019 22.0185 12.2706 21.9964C15.1174 21.0766 17.7727 19.4944 19.9502 17.4197L19.9497 17.4192Z" fill="url(#paint4_linear_232_453)"/>
<path d="M11.9576 18.3798C12.04 18.3798 12.1241 18.3645 12.2053 18.3321C17.6892 16.1608 21.6454 11.1973 22.5294 5.37827C22.5851 5.01071 22.3323 4.66757 21.9647 4.61133C21.5972 4.55566 21.254 4.80846 21.1978 5.17603C20.3854 10.523 16.7495 15.0843 11.7094 17.08C11.3634 17.2169 11.1941 17.6084 11.331 17.9538C11.4355 18.2179 11.6889 18.3793 11.957 18.3793L11.9576 18.3798Z" fill="url(#paint5_linear_232_453)"/>
<path d="M17.0756 10.2719C18.5572 8.07902 19.3401 5.51632 19.3401 2.85988C19.3401 2.57185 19.331 2.28042 19.3123 1.99409C19.2884 1.62312 18.968 1.34191 18.597 1.36577C18.226 1.38963 17.9448 1.71004 17.9687 2.08101C17.9852 2.33836 17.9937 2.60083 17.9937 2.85988C17.9937 7.65749 15.1384 11.9648 10.7197 13.8339C10.3772 13.9788 10.217 14.3736 10.3618 14.7161C10.4703 14.9729 10.7197 15.1275 10.9822 15.1275C11.0697 15.1275 11.1583 15.1104 11.2441 15.0741C13.6142 14.0714 15.631 12.4114 17.0756 10.2719Z" fill="url(#paint6_linear_232_453)"/>
<path d="M15.9752 2.85988C15.9752 2.52583 15.9582 2.18895 15.9252 1.85888C15.8877 1.48905 15.5577 1.2192 15.1878 1.25613C14.818 1.29362 14.5482 1.62369 14.5851 1.99352C14.6141 2.27928 14.6283 2.57071 14.6283 2.85988C14.6283 7.57171 10.7947 11.4047 6.08345 11.4047C4.26723 11.4047 2.53339 10.8428 1.06882 9.77935C0.767729 9.56063 0.346767 9.62767 0.128616 9.92876C-0.0901026 10.2299 -0.0230665 10.6508 0.278027 10.869C1.97381 12.1 3.98148 12.7511 6.08345 12.7511C8.72569 12.7511 11.2094 11.7223 13.0779 9.85377C14.9464 7.98529 15.9752 5.50155 15.9752 2.85931V2.85988Z" fill="url(#paint7_linear_232_453)"/>
<path d="M6.08345 9.33339C9.65283 9.33339 12.557 6.42926 12.557 2.85988C12.557 2.10146 12.4269 1.35839 12.1701 0.651101C12.0434 0.301719 11.6571 0.121061 11.3077 0.247747C10.9583 0.374434 10.7777 0.760742 10.9044 1.11012C11.1072 1.6697 11.2106 2.25826 11.2106 2.85931C11.2106 5.68675 8.91032 7.98642 6.08345 7.98642C4.14054 7.98642 2.38739 6.9093 1.5074 5.17489C1.33924 4.84312 0.934184 4.71075 0.602413 4.87891C0.270642 5.04707 0.138273 5.45212 0.306431 5.78389C1.4165 7.97279 3.63039 9.33282 6.08345 9.33282V9.33339Z" fill="url(#paint8_linear_232_453)"/>
<path d="M6.08345 0C4.50413 0 3.22363 1.2805 3.22363 2.85982C3.22363 4.43914 4.50413 5.71964 6.08345 5.71964C7.66277 5.71964 8.94327 4.43914 8.94327 2.85982C8.94327 1.2805 7.66277 0 6.08345 0Z" fill="#288DD1"/>
<defs>
<linearGradient id="paint0_linear_232_453" x1="0.625158" y1="29.2579" x2="28.1258" y2="26.879" gradientUnits="userSpaceOnUse">
<stop stop-color="#288DD1"/>
<stop offset="1" stop-color="#3FE0C8"/>
</linearGradient>
<linearGradient id="paint1_linear_232_453" x1="0.625158" y1="29.2579" x2="28.1258" y2="26.879" gradientUnits="userSpaceOnUse">
<stop stop-color="#288DD1"/>
<stop offset="1" stop-color="#3FE0C8"/>
</linearGradient>
<linearGradient id="paint2_linear_232_453" x1="0.625158" y1="29.2579" x2="28.1258" y2="26.879" gradientUnits="userSpaceOnUse">
<stop stop-color="#288DD1"/>
<stop offset="1" stop-color="#3FE0C8"/>
</linearGradient>
<linearGradient id="paint3_linear_232_453" x1="0.625158" y1="29.2579" x2="28.1258" y2="26.879" gradientUnits="userSpaceOnUse">
<stop stop-color="#288DD1"/>
<stop offset="1" stop-color="#3FE0C8"/>
</linearGradient>
<linearGradient id="paint4_linear_232_453" x1="0.625158" y1="29.2579" x2="28.1258" y2="26.879" gradientUnits="userSpaceOnUse">
<stop stop-color="#288DD1"/>
<stop offset="1" stop-color="#3FE0C8"/>
</linearGradient>
<linearGradient id="paint5_linear_232_453" x1="0.625158" y1="29.2579" x2="28.1258" y2="26.879" gradientUnits="userSpaceOnUse">
<stop stop-color="#288DD1"/>
<stop offset="1" stop-color="#3FE0C8"/>
</linearGradient>
<linearGradient id="paint6_linear_232_453" x1="0.625158" y1="29.2579" x2="28.1258" y2="26.879" gradientUnits="userSpaceOnUse">
<stop stop-color="#288DD1"/>
<stop offset="1" stop-color="#3FE0C8"/>
</linearGradient>
<linearGradient id="paint7_linear_232_453" x1="0.625158" y1="29.2579" x2="28.1258" y2="26.879" gradientUnits="userSpaceOnUse">
<stop stop-color="#288DD1"/>
<stop offset="1" stop-color="#3FE0C8"/>
</linearGradient>
<linearGradient id="paint8_linear_232_453" x1="0.625158" y1="29.2579" x2="28.1258" y2="26.879" gradientUnits="userSpaceOnUse">
<stop stop-color="#288DD1"/>
<stop offset="1" stop-color="#3FE0C8"/>
</linearGradient>
</defs>
</svg>
