<svg width="198" height="255" viewBox="0 0 198 255" fill="none" xmlns="http://www.w3.org/2000/svg">
<path fill-rule="evenodd" clip-rule="evenodd" d="M124.282 -29.3062H202.963L202.698 47.5879L249.306 47.5872V97.8262H201.259V49.0221H125.718L125.719 124.482L249.306 124.61V254.307H124.282L124.282 125.916H47.3029L47.5671 49.0228L0.694183 49.087V-1.08829H48.7365L49.0014 47.5879H124.282V-29.3062ZM125.718 47.5879H201.262L201.522 -27.8716H125.718V47.5879ZM202.695 49.0221V96.3914H247.87V49.0221H202.695ZM124.282 49.0221H49.0028L48.7436 124.481H124.282L124.282 49.0221ZM47.5656 47.5886L47.3086 0.34623H2.13062V47.6507L47.5656 47.5886ZM125.719 125.916L125.718 252.872H247.87V126.043L125.719 125.916ZM47.3043 142.117H76.9894V171.77H47.3043V142.117ZM48.7408 143.552V170.335H75.5529V143.552H48.7408Z" fill="url(#paint0_linear_205_12025)" fill-opacity="0.4"/>
<defs>
<linearGradient id="paint0_linear_205_12025" x1="92.161" y1="-5.66191" x2="149.923" y2="176.264" gradientUnits="userSpaceOnUse">
<stop stop-color="white" stop-opacity="0.7"/>
<stop offset="1" stop-color="white" stop-opacity="0.8"/>
</linearGradient>
</defs>
</svg>
