<svg width="120" height="32" viewBox="0 0 120 32" fill="none" xmlns="http://www.w3.org/2000/svg">
<path d="M16.603 32C25.5164 32 32.7421 24.8366 32.7421 16C32.7421 7.16344 25.5164 0 16.603 0C7.6896 0 0.463867 7.16344 0.463867 16C0.463867 24.8366 7.6896 32 16.603 32Z" fill="#121212"/>
<path d="M18.3221 17.4765V17.4739C18.2105 17.4816 17.6345 17.5151 16.3527 17.5151C15.3278 17.5151 14.6091 17.4868 14.3548 17.4739V17.4765C10.4134 17.3041 7.47359 16.625 7.47359 15.8096C7.47359 14.9967 10.416 14.3151 14.3548 14.1427V16.8C14.6116 16.818 15.3511 16.8617 16.3709 16.8617C17.5956 16.8617 18.2079 16.8103 18.3221 16.8V14.1453C22.2557 14.3202 25.1877 14.9993 25.1877 15.8122C25.1877 16.625 22.2531 17.3041 18.3221 17.4791V17.4765ZM18.3221 13.8701V11.4932H23.8099V7.86877H8.86954V11.4932H14.3574V13.8701C9.89705 14.0733 6.54468 14.9479 6.54468 15.9974C6.54468 17.0469 9.89964 17.9215 14.3574 18.1273V25.7466H18.3247V18.1273C22.7772 17.9241 26.1244 17.0495 26.1244 16C26.1244 14.953 22.7772 14.0758 18.3247 13.8726" fill="white"/>
<path d="M46.4496 8.85915V12.7023H50.2171V15.5859H46.4237V21.4328C46.4237 22.7242 47.1424 23.3544 48.1958 23.3544C48.7226 23.3544 49.3323 23.1898 49.8305 22.9428L50.7724 25.7981C49.8046 26.1814 49.0002 26.346 47.9753 26.3743C45.0121 26.4849 43.0739 24.8103 43.0739 21.4328V15.5859H40.5259V12.7023H43.0739V9.21671L46.4496 8.85915ZM111.403 12.5222L111.652 14.0862C112.706 12.4116 114.117 12.1646 115.503 12.1646C116.914 12.1646 118.271 12.7125 119.019 13.4534L117.495 16.3627C116.803 15.7865 116.167 15.483 115.059 15.483C113.287 15.483 111.652 16.4167 111.652 18.9145V26.0528H108.274V12.517L111.403 12.5222ZM103.123 17.7106C102.903 15.9537 101.517 15.074 99.5789 15.074C97.7523 15.074 96.2551 15.9537 95.7569 17.7106H103.123ZM95.7024 20.4836C95.923 22.1582 97.3916 23.3672 99.7735 23.3672C101.019 23.3672 102.654 22.8991 103.429 22.1042L105.588 24.2187C104.148 25.7004 101.795 26.4155 99.7164 26.4155C95.0096 26.4155 92.2099 23.5319 92.2099 19.1949C92.2099 15.0765 95.0356 12.1106 99.4674 12.1106C104.037 12.1106 106.891 14.9119 106.364 20.4836H95.7024ZM80.8036 6.83728V14.3589C82.0231 12.7949 83.5177 12.3267 85.0693 12.3267C88.9458 12.3267 90.6635 14.9351 90.6635 18.9171V26.0554H87.2852V18.9454C87.2852 16.4733 85.9826 15.4315 84.1819 15.4315C82.1866 15.4315 80.8036 17.1061 80.8036 19.1383V26.0579H77.4253V6.83985L80.8036 6.83728ZM71.8311 8.70481V12.5479H75.5986V15.4315H71.8051V21.2785C71.8051 22.5698 72.5265 23.2 73.5773 23.2C74.104 23.2 74.7138 23.0354 75.212 22.7885L76.1539 25.6438C75.186 26.0271 74.3817 26.1917 73.3568 26.22C70.3936 26.3306 68.4554 24.6534 68.4554 21.2785V15.4315H65.9074V12.5479H68.4554V9.06237L71.8311 8.70481ZM62.4979 17.7106C62.2774 15.9537 60.8918 15.074 58.9535 15.074C57.1268 15.074 55.6297 15.9537 55.1315 17.7106H62.4979ZM55.077 20.4836C55.2976 22.1582 56.7662 23.3672 59.1481 23.3672C60.3936 23.3672 62.0283 22.8991 62.8041 22.1042L64.9629 24.2187C63.5228 25.7004 61.1694 26.4155 59.091 26.4155C54.3816 26.4155 51.5845 23.5319 51.5845 19.1949C51.5845 15.0765 54.4102 12.1106 58.8394 12.1106C63.4086 12.1106 66.2602 14.9119 65.7361 20.4836H55.077Z" fill="#121212"/>
</svg>
