<svg width="33" height="32" viewBox="0 0 33 32" fill="none" xmlns="http://www.w3.org/2000/svg">
<path opacity="0.4" d="M27.2624 22.92C25.9291 24.1334 24.2091 24.8 22.4091 24.7867H22.2891C22.6891 23.96 22.9024 23.0267 22.9024 22.04C22.9024 18.36 19.9157 15.3734 16.2357 15.3734C12.5557 15.3734 9.56908 18.36 9.56908 22.04C9.56908 23.0267 9.78244 23.96 10.1824 24.7867H7.62238C1.38238 24.3467 1.38238 15.2667 7.62238 14.8267H7.68911C3.40911 2.92003 21.4624 -1.83997 23.529 10.6667C29.3024 11.4 31.6358 19.0934 27.2624 22.92Z" fill="url(#paint0_linear_293_379)" fill-opacity="0.8"/>
<path d="M16.2355 15.3733C12.5555 15.3733 9.56885 18.36 9.56885 22.04C9.56885 23.0266 9.78221 23.96 10.1822 24.7866C10.2889 25.0266 10.4088 25.2533 10.5422 25.4666C11.6888 27.4 13.8088 28.7066 16.2355 28.7066C18.6622 28.7066 20.7822 27.4 21.9289 25.4666C22.0622 25.2533 22.1822 25.0266 22.2888 24.7866C22.6888 23.96 22.9022 23.0266 22.9022 22.04C22.9022 18.36 19.9155 15.3733 16.2355 15.3733ZM18.9955 21.4666L16.1555 24.0933C15.9689 24.2666 15.7155 24.36 15.4755 24.36C15.2222 24.36 14.9689 24.2666 14.7689 24.0666L13.4488 22.7466C13.0621 22.36 13.0621 21.72 13.4488 21.3333C13.8355 20.9466 14.4755 20.9466 14.8621 21.3333L15.5022 21.9733L17.6355 20C18.0488 19.6266 18.6755 19.6533 19.0488 20.0533C19.4222 20.4533 19.3955 21.08 18.9955 21.4666Z" fill="url(#paint1_linear_293_379)" fill-opacity="0.8"/>
<defs>
<linearGradient id="paint0_linear_293_379" x1="3.52954" y1="22.9331" x2="29.1813" y2="19.8502" gradientUnits="userSpaceOnUse">
<stop stop-color="#288DD1"/>
<stop offset="1" stop-color="#3FE0C8"/>
</linearGradient>
<linearGradient id="paint1_linear_293_379" x1="9.86329" y1="27.5566" x2="22.7908" y2="26.3007" gradientUnits="userSpaceOnUse">
<stop stop-color="#288DD1"/>
<stop offset="1" stop-color="#3FE0C8"/>
</linearGradient>
</defs>
</svg>
