<svg width="33" height="32" viewBox="0 0 33 32" fill="none" xmlns="http://www.w3.org/2000/svg">
<path opacity="0.4" d="M21.8222 2.66675H10.6622C5.80886 2.66675 2.91553 5.56008 2.91553 10.4134V21.5734C2.91553 26.4268 5.80886 29.3201 10.6622 29.3201H21.8222C26.6755 29.3201 29.5688 26.4268 29.5688 21.5734V10.4134C29.5688 5.56008 26.6755 2.66675 21.8222 2.66675Z" fill="url(#paint0_linear_205_11911)" fill-opacity="0.8"/>
<path d="M8.2356 11.9999C7.68893 11.9999 7.2356 11.5466 7.2356 10.9999V8.33325C7.2356 7.78659 7.68893 7.33325 8.2356 7.33325C8.78226 7.33325 9.2356 7.78659 9.2356 8.33325V10.9999C9.2356 11.5466 8.78226 11.9999 8.2356 11.9999Z" fill="url(#paint1_linear_205_11911)" fill-opacity="0.8"/>
<path d="M13.5688 11.9999C13.0222 11.9999 12.5688 11.5466 12.5688 10.9999V8.33325C12.5688 7.78659 13.0222 7.33325 13.5688 7.33325C14.1155 7.33325 14.5688 7.78659 14.5688 8.33325V10.9999C14.5688 11.5466 14.1155 11.9999 13.5688 11.9999Z" fill="url(#paint2_linear_205_11911)" fill-opacity="0.8"/>
<path d="M8.2356 24.9999C7.68893 24.9999 7.2356 24.5466 7.2356 23.9999V21.3333C7.2356 20.7866 7.68893 20.3333 8.2356 20.3333C8.78226 20.3333 9.2356 20.7866 9.2356 21.3333V23.9999C9.2356 24.5466 8.78226 24.9999 8.2356 24.9999Z" fill="url(#paint3_linear_205_11911)" fill-opacity="0.8"/>
<path d="M13.5688 24.9999C13.0222 24.9999 12.5688 24.5466 12.5688 23.9999V21.3333C12.5688 20.7866 13.0222 20.3333 13.5688 20.3333C14.1155 20.3333 14.5688 20.7866 14.5688 21.3333V23.9999C14.5688 24.5466 14.1155 24.9999 13.5688 24.9999Z" fill="url(#paint4_linear_205_11911)" fill-opacity="0.8"/>
<path d="M24.2357 10.6667H18.9023C18.3557 10.6667 17.9023 10.2134 17.9023 9.66675C17.9023 9.12008 18.3557 8.66675 18.9023 8.66675H24.2357C24.7823 8.66675 25.2357 9.12008 25.2357 9.66675C25.2357 10.2134 24.7823 10.6667 24.2357 10.6667Z" fill="url(#paint5_linear_205_11911)" fill-opacity="0.8"/>
<path d="M24.2357 23.6667H18.9023C18.3557 23.6667 17.9023 23.2134 17.9023 22.6667C17.9023 22.1201 18.3557 21.6667 18.9023 21.6667H24.2357C24.7823 21.6667 25.2357 22.1201 25.2357 22.6667C25.2357 23.2134 24.7823 23.6667 24.2357 23.6667Z" fill="url(#paint6_linear_205_11911)" fill-opacity="0.8"/>
<path d="M29.569 15H2.90234V17H29.569V15Z" fill="url(#paint7_linear_205_11911)" fill-opacity="0.8"/>
<defs>
<linearGradient id="paint0_linear_205_11911" x1="3.50412" y1="27.0212" x2="29.3461" y2="24.5106" gradientUnits="userSpaceOnUse">
<stop stop-color="#288DD1"/>
<stop offset="1" stop-color="#3FE0C8"/>
</linearGradient>
<linearGradient id="paint1_linear_205_11911" x1="7.27976" y1="11.5974" x2="9.2338" y2="11.5161" gradientUnits="userSpaceOnUse">
<stop stop-color="#288DD1"/>
<stop offset="1" stop-color="#3FE0C8"/>
</linearGradient>
<linearGradient id="paint2_linear_205_11911" x1="12.613" y1="11.5974" x2="14.5671" y2="11.5161" gradientUnits="userSpaceOnUse">
<stop stop-color="#288DD1"/>
<stop offset="1" stop-color="#3FE0C8"/>
</linearGradient>
<linearGradient id="paint3_linear_205_11911" x1="7.27976" y1="24.5974" x2="9.2338" y2="24.5161" gradientUnits="userSpaceOnUse">
<stop stop-color="#288DD1"/>
<stop offset="1" stop-color="#3FE0C8"/>
</linearGradient>
<linearGradient id="paint4_linear_205_11911" x1="12.613" y1="24.5974" x2="14.5671" y2="24.5161" gradientUnits="userSpaceOnUse">
<stop stop-color="#288DD1"/>
<stop offset="1" stop-color="#3FE0C8"/>
</linearGradient>
<linearGradient id="paint5_linear_205_11911" x1="18.0643" y1="10.4942" x2="24.4333" y2="8.22546" gradientUnits="userSpaceOnUse">
<stop stop-color="#288DD1"/>
<stop offset="1" stop-color="#3FE0C8"/>
</linearGradient>
<linearGradient id="paint6_linear_205_11911" x1="18.0643" y1="23.4942" x2="24.4333" y2="21.2255" gradientUnits="userSpaceOnUse">
<stop stop-color="#288DD1"/>
<stop offset="1" stop-color="#3FE0C8"/>
</linearGradient>
<linearGradient id="paint7_linear_205_11911" x1="3.49123" y1="16.8275" x2="13.2371" y2="4.2031" gradientUnits="userSpaceOnUse">
<stop stop-color="#288DD1"/>
<stop offset="1" stop-color="#3FE0C8"/>
</linearGradient>
</defs>
</svg>
