<svg width="24" height="24" viewBox="0 0 24 24" fill="none" xmlns="http://www.w3.org/2000/svg">
<path d="M0.00976562 24L1.73171 17.6031C0.343005 15.1112 -0.0982005 12.2033 0.489056 9.41309C1.07631 6.62288 2.65264 4.13748 4.92878 2.41298C7.20491 0.68848 10.0282 -0.159455 12.8805 0.0247736C15.7328 0.209002 18.4229 1.41304 20.4571 3.41594C22.4912 5.41883 23.733 8.08625 23.9546 10.9287C24.1762 13.7712 23.3627 16.598 21.6634 18.8904C19.9641 21.1829 17.493 22.7873 14.7035 23.4091C11.914 24.0309 8.99327 23.6285 6.47723 22.2757L0.00976562 24ZM6.78908 19.8819L7.18906 20.1186C9.01148 21.196 11.14 21.6419 13.243 21.3867C15.346 21.1315 17.3053 20.1896 18.8156 18.7077C20.3258 17.2258 21.3022 15.2873 21.5926 13.1941C21.883 11.101 21.471 8.97077 20.4209 7.13553C19.3709 5.30028 17.7416 3.86306 15.7871 3.04784C13.8326 2.23262 11.6627 2.0852 9.6154 2.62854C7.56813 3.17188 5.75856 4.37546 4.46868 6.05173C3.1788 7.728 2.48107 9.78279 2.48421 11.8959C2.4825 13.648 2.9683 15.3662 3.88753 16.8593L4.13837 17.2717L3.1757 20.8421L6.78908 19.8819Z" fill="#1E1E1E" fill-opacity="0.8"/>
<path fill-rule="evenodd" clip-rule="evenodd" d="M16.497 13.5385C16.2625 13.3498 15.988 13.2171 15.6943 13.1503C15.4006 13.0835 15.0954 13.0844 14.8022 13.153C14.3615 13.3356 14.0768 14.0253 13.792 14.3702C13.732 14.4529 13.6438 14.5109 13.5439 14.5333C13.4441 14.5557 13.3395 14.541 13.2497 14.4919C11.6364 13.8617 10.2842 12.7059 9.4126 11.2123C9.33826 11.1191 9.30308 11.0008 9.31446 10.8822C9.32584 10.7637 9.3829 10.6541 9.47362 10.5767C9.79119 10.2631 10.0244 9.87472 10.1515 9.44743C10.1798 8.97612 10.0715 8.50666 9.8397 8.09502C9.66047 7.51791 9.31937 7.00404 8.8567 6.61412C8.61807 6.50707 8.35348 6.47118 8.09485 6.51077C7.83622 6.55037 7.59461 6.66376 7.39915 6.83727C7.05982 7.12929 6.79049 7.49351 6.61098 7.9031C6.43147 8.3127 6.34636 8.75724 6.36191 9.204C6.36296 9.45488 6.39483 9.70468 6.45682 9.94782C6.61424 10.532 6.85633 11.0901 7.17543 11.6045C7.40565 11.9986 7.65685 12.38 7.92793 12.7473C8.80894 13.9537 9.91638 14.9779 11.1888 15.7632C11.8273 16.1623 12.5097 16.4867 13.2226 16.7302C13.9631 17.065 14.7807 17.1935 15.5886 17.1021C16.0488 17.0326 16.485 16.8513 16.8585 16.5742C17.2321 16.2971 17.5316 15.9327 17.7308 15.513C17.8479 15.2595 17.8834 14.976 17.8325 14.7016C17.7105 14.1403 16.958 13.809 16.497 13.5385Z" fill="#1E1E1E" fill-opacity="0.8"/>
</svg>
